<svg width="30" height="31" viewBox="0 0 30 31" fill="none" xmlns="http://www.w3.org/2000/svg">
<path d="M0 15C0 6.71573 6.71573 0 15 0C23.2843 0 30 6.71573 30 15C30 23.2843 23.2843 30 15 30C6.71573 30 0 23.2843 0 15Z" fill="#1586F9"/>
<path d="M12 8.5C12 9.32843 11.3284 10 10.5 10C9.67157 10 9 9.32843 9 8.5C9 7.67157 9.67157 7 10.5 7C11.3284 7 12 7.67157 12 8.5Z" fill="white"/>
<g filter="url(#filter0_d_18_42)">
<path d="M7.30894 15.8102C7.31962 15.7964 7.34318 15.7453 7.36057 15.696C7.37893 15.6433 7.40129 15.5964 7.41443 15.5806C7.42733 15.5656 7.44432 15.5305 7.45328 15.5001C7.46274 15.468 7.47667 15.44 7.48676 15.4314C7.49575 15.4233 7.51301 15.3936 7.5241 15.3656C7.53824 15.3305 7.54902 15.3131 7.56002 15.311C7.57213 15.3083 7.57997 15.2946 7.59039 15.2592C7.60057 15.2247 7.60865 15.2102 7.61965 15.208C7.62781 15.206 7.64573 15.1836 7.6587 15.1588C7.67277 15.1335 7.68897 15.1106 7.6965 15.1075C7.70292 15.1049 7.71727 15.085 7.72642 15.0636C7.73644 15.0425 7.75239 15.0204 7.76151 15.015C7.77064 15.0097 7.78229 14.9926 7.78714 14.9762C7.79198 14.9597 7.8061 14.9407 7.81928 14.9312C7.83222 14.9225 7.84464 14.9092 7.84731 14.9002C7.84973 14.8919 7.85979 14.8771 7.87036 14.8668C7.88094 14.8565 7.89482 14.8383 7.90241 14.8253C7.90889 14.813 7.92217 14.7999 7.93082 14.7962C7.93921 14.7933 7.9483 14.7817 7.95145 14.771C7.95436 14.7612 7.96456 14.749 7.97368 14.7437C7.98256 14.7391 7.99609 14.7253 8.00281 14.7121C8.01017 14.7 8.02099 14.6889 8.02866 14.6885C8.03633 14.688 8.04566 14.6756 8.0505 14.6592C8.05584 14.6411 8.06676 14.6265 8.07984 14.6205C8.09095 14.6149 8.10718 14.5982 8.11526 14.5836C8.12333 14.569 8.13908 14.554 8.14946 14.5509C8.1607 14.5479 8.17177 14.536 8.17516 14.5245C8.17831 14.5138 8.18778 14.5041 8.19545 14.5037C8.20336 14.5025 8.21186 14.496 8.21429 14.4878C8.21695 14.4788 8.22285 14.4716 8.22816 14.4696C8.23409 14.4687 8.25182 14.4534 8.26805 14.4367C8.28453 14.4193 8.30153 14.4064 8.30587 14.4077C8.30934 14.4087 8.31499 14.4023 8.31766 14.3933C8.32032 14.3843 8.32598 14.3779 8.33119 14.3794C8.33553 14.3807 8.34205 14.3746 8.34471 14.3656C8.34738 14.3565 8.35637 14.3485 8.36404 14.3481C8.37195 14.3468 8.38069 14.3396 8.38311 14.3314C8.38554 14.3231 8.39119 14.3168 8.3964 14.3183C8.40074 14.3196 8.40653 14.3159 8.40847 14.3094C8.41041 14.3028 8.41843 14.298 8.42634 14.2968C8.43401 14.2964 8.44227 14.2908 8.44445 14.2834C8.44663 14.276 8.45856 14.2643 8.47189 14.2575C8.48434 14.2505 8.5054 14.2335 8.51782 14.2202C8.53024 14.2069 8.54439 14.1941 8.54945 14.1929C8.55476 14.1909 8.56524 14.1842 8.57312 14.1767C8.62002 14.136 8.64774 14.1156 8.65468 14.1177C8.65902 14.119 8.6637 14.1159 8.66516 14.111C8.66661 14.106 8.68323 14.0913 8.70307 14.0784C8.72205 14.0652 8.74002 14.0491 8.74196 14.0425C8.74414 14.0351 8.75202 14.0276 8.75819 14.0259C8.77339 14.0223 8.7958 14.004 8.81682 13.9807C8.82431 13.9713 8.83455 13.9654 8.83976 13.9669C8.8441 13.9682 8.85062 13.9621 8.85328 13.953C8.85619 13.9432 8.87035 13.9304 8.88565 13.9233C8.90095 13.9162 8.91462 13.9051 8.9168 13.8977C8.91874 13.8911 8.927 13.8855 8.93491 13.8843C8.94258 13.8838 8.95084 13.8782 8.95302 13.8708C8.95496 13.8643 8.96013 13.8596 8.96534 13.8611C8.96968 13.8624 8.97842 13.8551 8.98528 13.8447C8.99128 13.8339 9.00002 13.8267 9.00436 13.828C9.0087 13.8292 9.01918 13.8225 9.02691 13.8123C9.03465 13.8021 9.04512 13.7953 9.05033 13.7969C9.05467 13.7981 9.06119 13.792 9.06362 13.7838C9.06604 13.7756 9.07478 13.7684 9.0827 13.7671C9.09037 13.7667 9.09862 13.7611 9.10081 13.7537C9.10299 13.7463 9.11492 13.7347 9.12824 13.7279C9.1407 13.7208 9.16287 13.7033 9.17726 13.6897C9.1919 13.6752 9.20644 13.6643 9.20991 13.6654C9.21338 13.6664 9.22816 13.6547 9.24217 13.6392C9.25705 13.6239 9.27183 13.6122 9.27617 13.6135C9.27964 13.6145 9.28433 13.6114 9.28578 13.6065C9.28723 13.6016 9.30385 13.5868 9.3237 13.5739C9.34267 13.5608 9.35992 13.5471 9.36137 13.5422C9.36258 13.5381 9.37576 13.5286 9.39107 13.5215C9.4055 13.5141 9.42052 13.5016 9.4227 13.4942C9.42489 13.4868 9.433 13.4785 9.43918 13.4767C9.44623 13.4752 9.46139 13.4654 9.47197 13.4551C9.51085 13.4193 9.6144 13.3337 9.62169 13.3314C9.62589 13.33 9.63401 13.3217 9.64039 13.3128C9.64701 13.3032 9.65811 13.2975 9.66506 13.2996C9.672 13.3016 9.67939 13.2958 9.68206 13.2867C9.68472 13.2777 9.69371 13.2696 9.70138 13.2692C9.70929 13.268 9.71779 13.2616 9.71997 13.2542C9.72215 13.2468 9.73312 13.2384 9.74436 13.2355C9.75561 13.2325 9.76608 13.2258 9.76802 13.2192C9.76972 13.2135 9.79917 13.1936 9.83297 13.175C9.86652 13.1572 9.89525 13.1398 9.89622 13.1365C9.89695 13.134 9.9151 13.1269 9.93585 13.1205C9.9566 13.1141 9.99155 13.1012 10.013 13.0924C10.0339 13.0825 10.0575 13.076 10.0653 13.0783C10.0731 13.0806 10.0835 13.0774 10.0889 13.0719C10.0934 13.0661 10.1029 13.0627 10.1108 13.065C10.1177 13.067 10.1247 13.0655 10.1262 13.0606C10.1274 13.0565 10.1398 13.053 10.1535 13.0544C10.1684 13.0552 10.1953 13.0533 10.2145 13.0491C10.2334 13.0458 10.2562 13.0454 10.264 13.0477C10.2727 13.0502 10.2806 13.049 10.282 13.0441C10.2833 13.0399 10.2975 13.0397 10.3122 13.044C10.3281 13.0478 10.3582 13.0513 10.3792 13.0504C10.4003 13.0495 10.4471 13.057 10.4827 13.0675C10.5235 13.0796 10.5588 13.0846 10.5766 13.0819C10.6116 13.0752 10.6376 13.0829 10.6547 13.1049C10.6642 13.1175 10.691 13.129 10.7474 13.1457C10.8038 13.1623 10.8307 13.1738 10.8401 13.1864C10.8469 13.1955 10.8669 13.2077 10.8842 13.2128C10.9042 13.2187 10.919 13.2293 10.9263 13.2431C10.9323 13.2547 10.9431 13.2659 10.9501 13.2679C10.9605 13.271 10.9864 13.292 11.02 13.3252C11.0257 13.3313 11.0385 13.3423 11.0475 13.3503C11.0576 13.3577 11.0641 13.3677 11.0628 13.3718C11.0616 13.3759 11.0712 13.385 11.0841 13.3923C11.0982 13.3992 11.1077 13.4118 11.1073 13.4224C11.1075 13.4314 11.114 13.4413 11.1227 13.4439C11.1314 13.4465 11.1487 13.4677 11.1608 13.4908C11.1736 13.5143 11.1875 13.5345 11.1927 13.536C11.1971 13.5373 11.2016 13.5475 11.2015 13.5574C11.2021 13.5682 11.2096 13.5874 11.2171 13.6004C11.2381 13.6316 11.29 13.7853 11.2854 13.8009C11.2834 13.8074 11.2864 13.8164 11.2927 13.8209C11.2989 13.8254 11.3023 13.8425 11.3003 13.8589C11.2992 13.8755 11.3016 13.8896 11.306 13.8909C11.3094 13.8919 11.3109 13.9093 11.3086 13.9301C11.3065 13.95 11.3075 13.9753 11.31 13.9859C11.3281 14.043 11.2229 14.3995 11.1776 14.4379C11.1688 14.4452 11.1538 14.4675 11.1437 14.4887C11.1348 14.5092 11.1237 14.5247 11.1193 14.5234C11.115 14.5221 11.105 14.5335 11.097 14.5481C11.0898 14.5629 11.0798 14.5743 11.0755 14.573C11.0711 14.5717 11.066 14.5764 11.064 14.583C11.0621 14.5896 11.0569 14.5943 11.0526 14.593C11.0482 14.5917 11.0399 14.6009 11.0334 14.6133C11.0269 14.6256 11.0058 14.6426 10.9878 14.6525C10.969 14.6621 10.9524 14.6733 10.9512 14.6774C10.9474 14.6906 10.9069 14.7286 10.8982 14.7261C10.8939 14.7248 10.8889 14.7287 10.887 14.7353C10.8853 14.741 10.8649 14.7591 10.8423 14.7748C10.8198 14.7904 10.8001 14.8061 10.7993 14.8085C10.7986 14.811 10.7679 14.835 10.7322 14.8602C10.6962 14.8862 10.6646 14.9134 10.6626 14.92C10.6607 14.9266 10.6547 14.931 10.6503 14.9298C10.6451 14.9282 10.6346 14.935 10.6269 14.9452C10.6192 14.9554 10.6087 14.9621 10.6035 14.9606C10.5992 14.9593 10.5929 14.9646 10.5902 14.9736C10.5878 14.9819 10.5792 14.9918 10.5708 14.9947C10.5621 14.9984 10.5424 15.014 10.5265 15.0298C10.5012 15.0545 10.4209 15.1157 10.3801 15.142C10.3732 15.1463 10.3613 15.1579 10.3535 15.1681C10.3458 15.1784 10.3362 15.1853 10.3327 15.1843C10.3284 15.183 10.3114 15.1959 10.2932 15.2128C10.275 15.2298 10.258 15.2426 10.2545 15.2416C10.2502 15.2403 10.2459 15.2453 10.2442 15.2511C10.2422 15.2576 10.2292 15.2699 10.2145 15.278C10.1998 15.2862 10.1766 15.3043 10.1619 15.3188C10.1481 15.3335 10.1331 15.346 10.1285 15.3455C10.1246 15.3462 10.1205 15.3503 10.1193 15.3544C10.1162 15.3651 10.0663 15.4031 10.0491 15.4069C10.0429 15.4087 10.035 15.4162 10.0331 15.4227C10.0309 15.4301 10.0226 15.4393 10.0148 15.4432C9.98631 15.4598 9.97621 15.4685 9.95061 15.4913C9.93733 15.5043 9.92008 15.518 9.91429 15.5216C9.90763 15.525 9.8942 15.5354 9.88435 15.5432C9.8745 15.551 9.85687 15.5627 9.84553 15.5692C9.83481 15.5768 9.82423 15.587 9.82229 15.5936C9.82059 15.5994 9.81653 15.6035 9.81219 15.6022C9.80872 15.6012 9.78926 15.616 9.7697 15.6344C9.74902 15.6533 9.7298 15.6672 9.72459 15.6657C9.72025 15.6644 9.71411 15.6724 9.71096 15.6831C9.70757 15.6946 9.69651 15.7065 9.68526 15.7095C9.67489 15.7126 9.65296 15.7294 9.63648 15.7469C9.62001 15.7643 9.59049 15.794 9.5718 15.8126C9.55286 15.832 9.52716 15.8584 9.51474 15.8717C9.50232 15.885 9.48571 15.8997 9.47793 15.9037C9.47103 15.9079 9.46218 15.9187 9.45952 15.9277C9.45685 15.9367 9.44811 15.944 9.44044 15.9444C9.43253 15.9456 9.4233 15.9545 9.42039 15.9644C9.41724 15.9751 9.40951 15.9853 9.40444 15.9865C9.3985 15.9874 9.39188 15.9971 9.38921 16.0061C9.38631 16.0159 9.37171 16.0366 9.3577 16.0522C9.34344 16.0685 9.32493 16.0961 9.3165 16.115C9.30808 16.134 9.29421 16.1522 9.28581 16.1551C9.27631 16.1585 9.26244 16.1767 9.25377 16.1965C9.21863 16.2772 9.196 16.3188 9.1789 16.3352C9.16856 16.3446 9.14964 16.3864 9.13384 16.4335C9.11791 16.4779 9.09594 16.5268 9.0839 16.542C9.05346 16.5812 8.9439 16.9525 8.95157 16.9905C8.95526 17.0068 8.94932 17.0461 8.93675 17.0951C8.92332 17.1438 8.91689 17.1848 8.92024 17.2054C8.92258 17.2231 8.92267 17.2579 8.9196 17.2811C8.90974 17.3657 8.90704 17.4292 8.9134 17.4365C8.91677 17.441 8.9179 17.4628 8.91593 17.4854C8.91373 17.5089 8.91625 17.5355 8.92101 17.545C8.92577 17.5544 8.92676 17.5735 8.92264 17.5874C8.91852 17.6014 8.92027 17.6242 8.92642 17.6385C8.93258 17.6529 8.93676 17.6675 8.93579 17.6708C8.93263 17.6815 8.94859 17.7585 8.95582 17.766C8.95943 17.7697 8.95975 17.7814 8.95684 17.7913C8.95369 17.802 8.95589 17.8169 8.96113 17.8247C8.96638 17.8325 8.96931 17.845 8.96688 17.8532C8.9647 17.8606 8.96815 17.8777 8.97455 17.8912C8.98094 17.9047 8.98415 17.9226 8.98173 17.9308C8.9793 17.939 8.98025 17.9518 8.98289 17.9588C8.99468 17.9828 9.02349 18.0771 9.02131 18.0845C9.02009 18.0886 9.0226 18.0929 9.0278 18.0944C9.03214 18.0957 9.0343 18.1044 9.03164 18.1134C9.02897 18.1224 9.03287 18.1316 9.03981 18.1337C9.04675 18.1357 9.05416 18.1522 9.0565 18.1699C9.05884 18.1875 9.06537 18.2037 9.06971 18.205C9.07492 18.2065 9.07756 18.2136 9.07563 18.2201C9.07369 18.2267 9.07883 18.2381 9.08693 18.2458C9.09502 18.2536 9.10065 18.2633 9.09944 18.2674C9.09823 18.2715 9.10702 18.2928 9.11867 18.3141C9.13055 18.3346 9.13959 18.3551 9.13863 18.3584C9.13766 18.3617 9.15271 18.3938 9.17162 18.4289C9.1914 18.4642 9.22195 18.5205 9.23874 18.5531C9.2564 18.586 9.27464 18.6137 9.27985 18.6153C9.28419 18.6166 9.28683 18.6236 9.28489 18.6302C9.28295 18.6367 9.28646 18.644 9.29341 18.6461C9.30035 18.6481 9.31832 18.6704 9.33333 18.6962C9.36259 18.7442 9.40467 18.803 9.42534 18.8225C9.43194 18.8289 9.43906 18.84 9.44059 18.8476C9.44237 18.8543 9.45046 18.8621 9.45741 18.8641C9.46435 18.8662 9.47047 18.8742 9.47113 18.8816C9.47266 18.8892 9.47791 18.897 9.48486 18.899C9.4918 18.9011 9.4958 18.9067 9.49458 18.9108C9.49313 18.9157 9.49563 18.92 9.49997 18.9213C9.51212 18.9249 9.56635 18.9874 9.56393 18.9956C9.56296 18.9989 9.56807 19.0039 9.57588 19.0062C9.58369 19.0085 9.60373 19.027 9.62155 19.0465C9.63827 19.0666 9.65768 19.084 9.66376 19.0857C9.66983 19.0875 9.6798 19.0985 9.68582 19.1101C9.69183 19.1217 9.70527 19.1337 9.71482 19.1365C9.72524 19.1396 9.74042 19.1521 9.7499 19.1647C9.75939 19.1774 9.77543 19.1901 9.78672 19.1935C9.79713 19.1965 9.80672 19.2056 9.80738 19.213C9.80805 19.2203 9.82149 19.2323 9.83701 19.2404C9.85191 19.2475 9.86709 19.26 9.87123 19.2684C9.87449 19.2765 9.88519 19.285 9.89474 19.2878C9.91036 19.2925 9.94853 19.3198 9.98028 19.3497C9.98688 19.3561 10.0089 19.368 10.0287 19.3774C10.0486 19.3868 10.0666 19.3993 10.0701 19.4066C10.073 19.4128 10.1006 19.4281 10.13 19.4403C10.1596 19.4517 10.1855 19.4665 10.1875 19.4725C10.1893 19.4792 10.2221 19.496 10.2627 19.5116C10.3028 19.5261 10.3397 19.545 10.3458 19.5531C10.3517 19.562 10.4018 19.5839 10.4787 19.6111C10.547 19.6357 10.609 19.662 10.618 19.67C10.6371 19.6882 10.8324 19.7458 10.8842 19.7495C10.9047 19.7502 10.9709 19.7625 11.0314 19.775C11.0979 19.7893 11.1461 19.7955 11.1513 19.7908C11.1562 19.7869 11.192 19.7903 11.2309 19.7991C11.269 19.8076 11.3085 19.8112 11.3169 19.8084C11.3255 19.8047 11.3561 19.8065 11.3857 19.8117C11.4145 19.8166 11.4479 19.8184 11.4591 19.8155C11.4704 19.8126 11.4977 19.8126 11.5204 19.8157C11.5431 19.8188 11.5684 19.8192 11.5771 19.8155C11.5857 19.8118 11.6122 19.8116 11.6357 19.8149C11.6593 19.8183 11.6814 19.8168 11.686 19.811C11.6905 19.8052 11.7033 19.8036 11.7145 19.8069C11.7267 19.8105 11.748 19.8087 11.7628 19.8033C11.7776 19.7978 11.7997 19.7963 11.8119 19.7999C11.8249 19.8038 11.8388 19.8016 11.8433 19.7958C11.8487 19.7903 11.8556 19.786 11.8608 19.7876C11.873 19.7912 11.9745 19.7765 11.9821 19.7698C11.986 19.7664 12.0013 19.7656 12.0162 19.7664C12.0319 19.7675 12.0449 19.7651 12.0461 19.761C12.0473 19.7569 12.0543 19.7554 12.0613 19.7574C12.0682 19.7595 12.0753 19.758 12.0767 19.753C12.0779 19.7489 12.0869 19.7471 12.0965 19.75C12.1052 19.7525 12.1182 19.7501 12.1244 19.7448C12.135 19.7345 12.1718 19.7249 12.236 19.7152C12.2536 19.7133 12.27 19.7056 12.2719 19.699C12.2739 19.6924 12.2808 19.6882 12.2868 19.69C12.2929 19.6918 12.309 19.6885 12.3221 19.6826C12.3352 19.6766 12.3486 19.6725 12.3521 19.6736C12.3625 19.6766 12.4187 19.6494 12.4213 19.6404C12.4225 19.6363 12.432 19.6329 12.4423 19.6332C12.4537 19.633 12.4809 19.624 12.5048 19.6132C12.5279 19.6022 12.5747 19.5812 12.6084 19.5661C12.6866 19.5312 12.6875 19.5314 12.7416 19.4983C12.7668 19.4834 12.801 19.4631 12.8179 19.4538C12.8357 19.4448 12.851 19.4314 12.8531 19.424C12.8551 19.4174 12.862 19.4132 12.8689 19.4153C12.875 19.4171 12.8909 19.4111 12.9033 19.4013C12.9158 19.3907 12.9323 19.3795 12.9401 19.3756C12.9481 19.3708 12.964 19.3585 12.9748 19.3474C12.9865 19.3366 12.9992 19.3287 13.0036 19.33C13.0079 19.3313 13.0166 19.324 13.0233 19.3144C13.0293 19.3036 13.0402 19.2953 13.0479 19.2948C13.0556 19.2944 13.0629 19.2886 13.0646 19.2828C13.0666 19.2762 13.0778 19.2671 13.0898 19.2617C13.1017 19.2563 13.1154 19.2451 13.1218 19.2363C13.1332 19.22 13.1753 19.186 13.1959 19.1769C13.2023 19.1743 13.2294 19.1528 13.2559 19.1303C13.2826 19.1069 13.3068 19.089 13.3111 19.0903C13.3146 19.0913 13.3229 19.0822 13.33 19.0709C13.3363 19.0593 13.3513 19.0468 13.3619 19.0428C13.3734 19.039 13.3841 19.0315 13.3861 19.0249C13.3892 19.0142 13.3991 19.0064 13.4378 18.9839C13.4489 18.9783 13.459 18.9696 13.4604 18.9647C13.4619 18.9598 13.4717 18.952 13.482 18.9461C13.4931 18.9404 13.5112 18.927 13.522 18.9159C13.5331 18.904 13.5514 18.8898 13.5628 18.8833C13.5741 18.8768 13.5931 18.8637 13.6045 18.8536C13.6162 18.8428 13.6287 18.8358 13.6322 18.8368C13.6356 18.8378 13.641 18.8323 13.6435 18.824C13.6459 18.8158 13.657 18.8039 13.6674 18.7972C13.6959 18.7806 13.7669 18.7256 13.7691 18.7182C13.77 18.7149 13.7834 18.7046 13.7995 18.6951C13.8155 18.6855 13.8297 18.6727 13.8311 18.6678C13.8328 18.662 13.8408 18.6572 13.8487 18.656C13.8564 18.6556 13.8647 18.65 13.8666 18.6434C13.8685 18.6368 13.8764 18.6293 13.8826 18.6276C13.8896 18.6261 13.9066 18.6133 13.9202 18.5994C13.9335 18.5863 13.957 18.5674 13.973 18.5578C13.9879 18.5488 14.0021 18.536 14.004 18.5295C14.0057 18.5237 14.014 18.5181 14.0216 18.5177C14.0296 18.5165 14.0378 18.5109 14.0397 18.5043C14.0414 18.4986 14.0556 18.4858 14.0714 18.477C14.0872 18.4683 14.1008 18.4571 14.1023 18.4522C14.104 18.4465 14.1109 18.4422 14.1186 18.4418C14.1262 18.4414 14.1379 18.4306 14.1455 18.4176C14.1531 18.4047 14.1626 18.395 14.1669 18.3963C14.1713 18.3975 14.1762 18.3936 14.1781 18.3871C14.1801 18.3805 14.1881 18.3757 14.196 18.3745C14.2037 18.3741 14.2119 18.3685 14.2136 18.3627C14.2156 18.3561 14.2268 18.3469 14.2387 18.3416C14.2507 18.3362 14.2619 18.327 14.2636 18.3212C14.2653 18.3155 14.2729 18.3088 14.2808 18.3075C14.2879 18.3061 14.3051 18.2924 14.3187 18.2785C14.3316 18.2636 14.347 18.2529 14.3513 18.2542C14.3557 18.2555 14.3666 18.2471 14.3751 18.2344C14.3842 18.2228 14.3954 18.2136 14.3988 18.2147C14.4032 18.2159 14.4114 18.2103 14.4169 18.2012C14.4233 18.1924 14.4381 18.1807 14.4492 18.175C14.4603 18.1694 14.472 18.1586 14.4739 18.152C14.4759 18.1454 14.481 18.1407 14.4863 18.1422C14.4906 18.1435 14.4966 18.139 14.4986 18.1325C14.5005 18.1259 14.5057 18.1212 14.5109 18.1227C14.5152 18.124 14.521 18.1203 14.5227 18.1146C14.5247 18.108 14.5405 18.0957 14.5592 18.0869C14.5769 18.0779 14.5942 18.0642 14.5966 18.056C14.599 18.0478 14.6067 18.0411 14.6143 18.0407C14.622 18.0403 14.633 18.0319 14.639 18.0212C14.6456 18.0115 14.6543 18.0043 14.6587 18.0056C14.6639 18.0071 14.669 18.0024 14.671 17.9958C14.6729 17.9892 14.6781 17.9845 14.6824 17.9858C14.6868 17.9871 14.6948 17.9823 14.6996 17.9757C14.7193 17.9502 14.7494 17.9252 14.7581 17.9277C14.778 17.9336 14.7714 17.8986 14.7474 17.871C14.7335 17.8544 14.7176 17.8345 14.713 17.8278C14.7086 17.8203 14.6997 17.8123 14.6927 17.8102C14.6866 17.8084 14.6816 17.7998 14.6817 17.79C14.6824 17.7813 14.672 17.7684 14.6591 17.761C14.6471 17.7539 14.6335 17.7392 14.6292 17.7281C14.6256 17.7181 14.6156 17.7071 14.6078 17.7048C14.5991 17.7022 14.59 17.6915 14.5866 17.6807C14.5832 17.6699 14.5767 17.6599 14.5715 17.6584C14.5671 17.6571 14.555 17.6437 14.5454 17.6283C14.5358 17.613 14.5228 17.5994 14.5167 17.5976C14.5107 17.5958 14.5052 17.5888 14.5045 17.5815C14.5039 17.5741 14.4916 17.558 14.4773 17.5457C14.463 17.5335 14.4526 17.5206 14.4536 17.5173C14.4548 17.5132 14.447 17.5047 14.4356 17.4986C14.425 17.4928 14.414 17.4789 14.4115 17.4683C14.4089 17.4577 14.4024 17.4478 14.3972 17.4462C14.392 17.4447 14.3835 17.435 14.3782 17.4245C14.3725 17.4148 14.3588 17.3974 14.3469 17.3867C14.3349 17.376 14.3169 17.3538 14.3058 17.3371C14.2958 17.3199 14.2822 17.3051 14.2762 17.3033C14.2701 17.3015 14.2606 17.2889 14.2553 17.2749C14.25 17.2608 14.2388 17.2477 14.2319 17.2456C14.2249 17.2436 14.2122 17.2291 14.2041 17.2151C14.1962 17.2003 14.185 17.1871 14.178 17.1851C14.1711 17.183 14.1637 17.1728 14.1603 17.162C14.1569 17.1512 14.1495 17.1409 14.1443 17.1394C14.1391 17.1379 14.1261 17.1242 14.1156 17.1086C14.0833 17.0616 14.031 16.9988 14.0215 16.996C14.0172 16.9947 14.0068 16.9819 13.9995 16.9681C13.992 16.9552 13.9633 16.9181 13.9369 16.8862C13.9093 16.8549 13.8857 16.8229 13.884 16.8161C13.8824 16.8085 13.8743 16.8008 13.8683 16.799C13.8613 16.797 13.8562 16.7919 13.8577 16.7869C13.8589 16.7828 13.8549 16.7772 13.8488 16.7754C13.8427 16.7736 13.8306 16.7602 13.821 16.7449C13.8114 16.7295 13.801 16.7167 13.7976 16.7156C13.7941 16.7146 13.7855 16.7022 13.7776 16.6874C13.7697 16.6726 13.7593 16.6597 13.7541 16.6582C13.7498 16.6569 13.7464 16.6523 13.7476 16.6482C13.7488 16.6441 13.7434 16.6371 13.7356 16.6313C13.7183 16.6199 13.6994 16.5974 13.6808 16.5678C13.6727 16.5538 13.6621 16.5417 13.6569 16.5402C13.6464 16.5371 13.6327 16.5196 13.6167 16.4908C13.6113 16.4803 13.6028 16.4706 13.5976 16.4691C13.5933 16.4678 13.5823 16.4539 13.5742 16.4399C13.5663 16.425 13.5551 16.4119 13.5481 16.4099C13.5412 16.4078 13.5372 16.4022 13.5384 16.3981C13.5398 16.3931 13.5346 16.3853 13.5269 16.3795C13.5198 16.3747 13.509 16.3635 13.5037 16.3557C13.4987 16.3471 13.4821 16.3234 13.4678 16.3013C13.4534 16.2801 13.4373 16.2611 13.4329 16.2598C13.428 16.2574 13.4138 16.2416 13.4011 16.2236C13.3888 16.2048 13.3737 16.1887 13.3676 16.1869C13.3615 16.1851 13.3573 16.1803 13.3583 16.177C13.3595 16.1729 13.3515 16.1616 13.3413 16.1515C13.3302 16.1411 13.3119 16.1169 13.3012 16.0986C13.29 16.0792 13.2745 16.0612 13.2676 16.0592C13.2606 16.0571 13.2545 16.0491 13.253 16.0415C13.2523 16.0341 13.2462 16.0261 13.2384 16.0238C13.2314 16.0217 13.2263 16.0167 13.2278 16.0117C13.2297 16.0052 13.1742 15.9343 13.1326 15.8899C13.126 15.8835 13.1149 15.8668 13.1074 15.8539C13.1001 15.8401 13.0895 15.828 13.0843 15.8265C13.0799 15.8252 13.0766 15.8207 13.078 15.8157C13.0792 15.8116 13.0752 15.806 13.0692 15.8042C13.0631 15.8024 13.0557 15.7922 13.0523 15.7814C13.0489 15.7705 13.0415 15.7603 13.0355 15.7585C13.0303 15.757 13.0172 15.7406 13.0071 15.7234C12.9974 15.7053 12.984 15.6898 12.9771 15.6877C12.971 15.6859 12.9668 15.6811 12.9678 15.6778C12.9697 15.6712 12.9114 15.5969 12.9019 15.5941C12.8993 15.5933 12.8903 15.5791 12.8822 15.5615C12.8748 15.545 12.8626 15.5289 12.8565 15.5271C12.8496 15.5251 12.8401 15.5125 12.8339 15.4981C12.8278 15.4838 12.8192 15.4715 12.8148 15.4702C12.8105 15.4689 12.7949 15.4482 12.7794 15.424C12.7648 15.4 12.7492 15.3794 12.7457 15.3783C12.7379 15.376 12.7119 15.3425 12.6895 15.3064C12.6795 15.2892 12.6694 15.2755 12.6668 15.2747C12.6642 15.2739 12.6456 15.2443 12.6249 15.2088C12.6043 15.1732 12.5831 15.1428 12.5787 15.1415C12.5735 15.14 12.571 15.1357 12.5722 15.1316C12.5754 15.1209 12.5337 15.0479 12.5224 15.0446C12.5181 15.0433 12.5147 15.0387 12.5162 15.0338C12.5174 15.0297 12.5086 15.0083 12.4969 14.987C12.485 14.9666 12.476 14.946 12.477 14.9428C12.4777 14.9403 12.4709 14.9249 12.4607 14.9085C12.4323 14.8608 12.4224 14.84 12.425 14.831C12.4265 14.8261 12.4221 14.8185 12.4161 14.8132C12.4099 14.8087 12.406 14.7995 12.4077 14.7937C12.4097 14.7872 12.4037 14.772 12.394 14.7602C12.3843 14.7484 12.3786 14.7325 12.3808 14.7251C12.383 14.7177 12.3778 14.7001 12.3697 14.6861C12.3615 14.672 12.3553 14.6515 12.3548 14.6406C12.3545 14.6289 12.3482 14.6181 12.3413 14.6161C12.3343 14.614 12.3308 14.6067 12.3327 14.6002C12.3347 14.5936 12.332 14.5865 12.3268 14.585C12.3225 14.5837 12.316 14.5675 12.3136 14.5499C12.3113 14.5322 12.3056 14.5162 12.3013 14.515C12.2961 14.5134 12.2943 14.5066 12.2962 14.5001C12.2982 14.4935 12.2955 14.4865 12.2912 14.4852C12.286 14.4837 12.284 14.4777 12.2859 14.4711C12.2876 14.4654 12.2844 14.4537 12.2792 14.4459C12.2739 14.4381 12.2712 14.4248 12.2737 14.4166C12.2761 14.4084 12.2738 14.397 12.2687 14.3919C12.2636 14.3869 12.2579 14.3709 12.2563 14.357C12.2541 14.3421 12.2484 14.3297 12.2432 14.3281C12.2388 14.3269 12.2367 14.3182 12.2391 14.31C12.2417 14.3009 12.2402 14.2871 12.2358 14.2795C12.2323 14.2723 12.2249 14.246 12.22 14.2213C12.215 14.1966 12.2086 14.1733 12.2042 14.1693C12.2008 14.1647 12.1997 14.1555 12.2022 14.1473C12.2046 14.1391 12.2016 14.1203 12.1955 14.106C12.1893 14.0917 12.1864 14.073 12.189 14.0639C12.1917 14.0549 12.1883 14.0441 12.1823 14.0387C12.1761 14.0342 12.1732 14.0217 12.1766 14.0102C12.1799 13.9987 12.1799 13.9862 12.1754 13.9822C12.1682 13.9747 12.1595 13.9275 12.1586 13.8951C12.1592 13.8837 12.1555 13.8737 12.1512 13.8724C12.1468 13.8711 12.1448 13.8589 12.1454 13.8439C12.1458 13.8297 12.1432 13.8164 12.1388 13.8152C12.1345 13.8139 12.1349 13.7997 12.1395 13.7841C12.1453 13.7644 12.1437 13.7505 12.1335 13.7404C12.1257 13.7318 12.1217 13.7163 12.1249 13.7057C12.128 13.695 12.1267 13.674 12.1205 13.6597C12.1155 13.6448 12.1132 13.6174 12.1148 13.5991C12.1164 13.5808 12.1136 13.5586 12.1086 13.5499C12.1036 13.5413 12.1044 13.5192 12.1102 13.4995C12.1173 13.4757 12.1167 13.4586 12.1083 13.4454C12.1012 13.4343 12.0988 13.4104 12.1025 13.3883C12.1068 13.3672 12.1049 13.3417 12.0995 13.3312C12.0941 13.3206 12.0939 13.2991 12.0985 13.2835C12.1033 13.2671 12.1032 13.2483 12.0977 13.2413C12.0931 13.2346 12.093 13.206 12.0987 13.1773C12.1043 13.1486 12.1047 13.1184 12.0994 13.1079C12.0933 13.0963 12.0942 13.0742 12.1024 13.0463C12.1102 13.02 12.1114 12.9935 12.1063 12.9787C12.1012 12.9611 12.104 12.9289 12.1155 12.8805C12.1243 12.8411 12.1298 12.7999 12.1264 12.789C12.123 12.7782 12.1306 12.7269 12.144 12.6719C12.159 12.6084 12.1646 12.5637 12.1606 12.5455C12.1515 12.5026 12.3711 11.7584 12.4017 11.7281C12.415 11.7151 12.4346 11.6744 12.4547 11.6187C12.4733 11.5653 12.4927 11.5255 12.5009 11.5199C12.51 11.5145 12.5262 11.4791 12.5423 11.4338C12.5617 11.3779 12.574 11.3521 12.5896 11.3406C12.6031 11.3303 12.6151 11.3089 12.624 11.2785C12.6328 11.2489 12.6432 11.2296 12.6527 11.2262C12.6602 11.2231 12.6769 11.1985 12.6877 11.1713C12.6992 11.1453 12.7161 11.1199 12.725 11.1154C12.7339 11.1108 12.7434 11.0976 12.7471 11.0853C12.7507 11.0729 12.7619 11.0575 12.7712 11.0513C12.7809 11.0443 12.793 11.0256 12.7978 11.0092C12.8037 10.9894 12.8143 10.9756 12.8285 10.9691C12.8438 10.962 12.8534 10.9488 12.8602 10.9258C12.8658 10.9069 12.8775 10.8862 12.8871 10.8792C12.8959 10.872 12.9106 10.854 12.9187 10.8394C12.933 10.8133 12.9405 10.8039 12.989 10.7548C13.0014 10.7415 13.0129 10.7279 13.0144 10.723C13.0156 10.7189 13.0273 10.7081 13.0402 10.6994C13.0532 10.6907 13.0675 10.6708 13.0719 10.656C13.0772 10.638 13.0876 10.625 13.1016 10.6193C13.1136 10.6139 13.1255 10.6022 13.1284 10.5923C13.1313 10.5825 13.141 10.5719 13.1497 10.5682C13.1583 10.5645 13.1683 10.5532 13.1712 10.5433C13.1743 10.5327 13.1833 10.5246 13.1912 10.5234C13.1989 10.5229 13.2084 10.5132 13.2118 10.5017C13.2151 10.4902 13.2246 10.4805 13.2323 10.4801C13.2402 10.4789 13.2485 10.4733 13.2502 10.4675C13.2521 10.4609 13.2603 10.4553 13.268 10.4549C13.2768 10.454 13.2856 10.4432 13.2895 10.43C13.2936 10.4161 13.3025 10.4053 13.311 10.4051C13.3187 10.4047 13.3309 10.3922 13.3387 10.3785C13.3459 10.3636 13.3578 10.352 13.3655 10.3515C13.3732 10.3511 13.3811 10.3436 13.3837 10.3346C13.3862 10.3264 13.3949 10.3191 13.4028 10.3179C13.4105 10.3175 13.4197 10.3086 13.4226 10.2987C13.4258 10.2881 13.4375 10.2772 13.4487 10.2743C13.4599 10.2713 13.4711 10.2622 13.4736 10.2539C13.476 10.2457 13.4847 10.2385 13.4927 10.2372C13.5003 10.2368 13.5093 10.2288 13.512 10.2197C13.5146 10.2107 13.5203 10.2043 13.5255 10.2059C13.5298 10.2071 13.5356 10.2035 13.5373 10.1977C13.539 10.192 13.55 10.1836 13.562 10.1782C13.5737 10.1736 13.5854 10.1628 13.5878 10.1546C13.5902 10.1464 13.6014 10.1372 13.6129 10.1334C13.6244 10.1297 13.6349 10.1229 13.6363 10.118C13.6378 10.1131 13.6485 10.1055 13.6605 10.1001C13.6722 10.0956 13.6837 10.0855 13.6856 10.079C13.6875 10.0724 13.6981 10.0621 13.7086 10.0554C13.7435 10.0362 13.7704 10.0156 13.773 10.0065C13.7747 10.0008 13.7904 9.98932 13.809 9.98053C13.8268 9.97149 13.8433 9.96028 13.845 9.95453C13.8467 9.94878 13.8601 9.93846 13.8756 9.93054C13.8912 9.92263 13.9051 9.91066 13.907 9.90409C13.909 9.89751 13.9191 9.88888 13.9294 9.88569C13.9407 9.88276 13.9604 9.86714 13.9744 9.85163C13.9893 9.83638 14.0068 9.82189 14.0138 9.8204C14.0209 9.8189 14.0285 9.81222 14.0302 9.80647C14.0319 9.80072 14.0431 9.79153 14.0551 9.78613C14.067 9.78073 14.0787 9.76989 14.0814 9.76086C14.0838 9.75264 14.091 9.74761 14.097 9.7494C14.1031 9.75119 14.1188 9.73974 14.1328 9.72423C14.1459 9.70846 14.1598 9.69649 14.1642 9.69777C14.1676 9.69879 14.1786 9.69042 14.1886 9.67907C14.1985 9.66772 14.2182 9.6521 14.234 9.64336C14.2487 9.63519 14.2648 9.62209 14.271 9.61408C14.276 9.60663 14.2867 9.59908 14.2944 9.59867C14.302 9.59825 14.3108 9.59101 14.3132 9.58279C14.3156 9.57458 14.3298 9.56179 14.3451 9.55469C14.3604 9.5476 14.3738 9.53727 14.3758 9.5307C14.3775 9.52495 14.3824 9.52105 14.3867 9.52233C14.3911 9.52361 14.4004 9.51744 14.4068 9.50861C14.4134 9.49895 14.4298 9.48503 14.4442 9.47768C14.4587 9.47033 14.4723 9.45918 14.474 9.45343C14.476 9.44686 14.4809 9.44296 14.4861 9.44449C14.4904 9.44577 14.5047 9.4357 14.5174 9.42158C14.5301 9.40745 14.549 9.3943 14.56 9.39219C14.5704 9.389 14.58 9.38201 14.5817 9.37626C14.5849 9.36558 14.5983 9.35526 14.6327 9.33773C14.643 9.33182 14.6582 9.31846 14.6671 9.30768C14.6759 9.29689 14.6884 9.28985 14.6962 9.29216C14.7031 9.29421 14.7109 9.29025 14.7131 9.28286C14.7155 9.27464 14.7347 9.26067 14.7558 9.24992C14.7769 9.23918 14.7961 9.22521 14.7981 9.21864C14.8 9.21206 14.8083 9.20646 14.817 9.20548C14.8247 9.20507 14.8374 9.1972 14.8447 9.18863C14.8644 9.16321 14.9357 9.11368 14.9478 9.11726C14.9541 9.11823 14.9637 9.11124 14.9706 9.10077C14.9766 9.09004 14.9909 9.07997 15.001 9.0776C15.0118 9.07631 15.0214 9.06932 15.0231 9.06357C15.026 9.05371 15.0508 9.03691 15.1006 9.00875C15.1097 9.0034 15.1185 8.99616 15.1199 8.99123C15.1211 8.98712 15.1339 8.97572 15.1477 8.96729C15.1624 8.95912 15.1834 8.94566 15.1943 8.93728C15.2059 8.92999 15.2392 8.90676 15.2684 8.8877C15.2979 8.86782 15.3223 8.84912 15.3232 8.84583C15.3244 8.84172 15.3369 8.83468 15.3515 8.83005C15.366 8.82542 15.3797 8.81428 15.3821 8.80606C15.3846 8.79785 15.395 8.79111 15.4053 8.79147C15.4156 8.79182 15.4258 8.78591 15.4278 8.77934C15.4299 8.77195 15.4516 8.75602 15.4761 8.74358C15.5007 8.73032 15.5219 8.71604 15.5234 8.71111C15.5248 8.70618 15.5465 8.69025 15.5714 8.67617C15.5966 8.66127 15.618 8.64616 15.6195 8.64123C15.6209 8.6363 15.6374 8.6251 15.6552 8.61606C15.6738 8.60727 15.6893 8.59663 15.6905 8.59253C15.6917 8.58842 15.7107 8.57526 15.732 8.5637C15.7533 8.55214 15.7726 8.53816 15.7742 8.53241C15.7759 8.52666 15.7833 8.52081 15.7904 8.51931C15.7983 8.51807 15.8146 8.5077 15.8282 8.49655C15.8408 8.48596 15.8685 8.46557 15.8892 8.45293C15.9102 8.43946 15.9285 8.42523 15.9297 8.42113C15.931 8.41702 15.9433 8.40726 15.9566 8.40047C16.003 8.37755 16.0343 8.35463 16.0377 8.34313C16.0399 8.33574 16.0443 8.33348 16.047 8.33697C16.0507 8.34071 16.0656 8.33172 16.0808 8.31836C16.0961 8.30501 16.1294 8.28178 16.1554 8.26714C16.1806 8.25224 16.2078 8.23348 16.215 8.2249C16.2225 8.21551 16.2328 8.2096 16.2388 8.21139C16.2449 8.21318 16.2638 8.20357 16.2808 8.19073C16.2978 8.17788 16.3326 8.15599 16.3586 8.14135C16.3855 8.12695 16.408 8.11128 16.409 8.108C16.41 8.10471 16.4153 8.10271 16.4205 8.10424C16.4257 8.10578 16.4541 8.09272 16.4826 8.07612C16.5738 8.02268 16.8211 7.90097 16.8324 7.9043C16.8376 7.90583 16.8506 7.89987 16.8601 7.89016C16.8696 7.88045 16.8818 7.87423 16.8861 7.87551C16.8905 7.8768 16.9108 7.86852 16.9319 7.85778C16.9522 7.84678 16.9725 7.8385 16.9777 7.84004C16.983 7.84157 16.9938 7.83674 17.0026 7.8295C17.0113 7.82225 17.0222 7.81742 17.0274 7.81896C17.0326 7.82049 17.0452 7.81617 17.0565 7.8097C17.067 7.80297 17.0813 7.79916 17.0874 7.80095C17.0935 7.80275 17.1098 7.79863 17.1223 7.79159C17.1543 7.77247 17.1893 7.75956 17.1997 7.76264C17.204 7.76392 17.2195 7.75954 17.2345 7.75327C17.249 7.74592 17.2713 7.73734 17.2837 7.73384C17.296 7.73034 17.3324 7.71877 17.3647 7.70863C17.3978 7.69876 17.4357 7.68852 17.4504 7.68661C17.4658 7.68578 17.4786 7.68063 17.4801 7.67571C17.4813 7.6716 17.4903 7.6698 17.4999 7.67261C17.5094 7.67543 17.5261 7.67321 17.537 7.66838C17.5612 7.65676 17.6017 7.64729 17.6568 7.63945C17.6795 7.63631 17.7017 7.63126 17.7058 7.6271C17.7107 7.6232 17.7215 7.62191 17.7293 7.62421C17.7371 7.62652 17.758 7.62286 17.7753 7.61546C17.7925 7.60805 17.8117 7.60388 17.8178 7.60568C17.8247 7.60772 17.8638 7.60318 17.9056 7.59587C17.9474 7.58855 17.9882 7.58452 17.9969 7.58708C18.0047 7.58938 18.0242 7.58711 18.039 7.58166C18.0539 7.57621 18.0785 7.57276 18.094 7.57465C18.1097 7.57571 18.1233 7.57437 18.1245 7.57026C18.1257 7.56616 18.1461 7.56414 18.1693 7.56561C18.1927 7.56627 18.2153 7.56312 18.2196 7.55814C18.2241 7.55234 18.2403 7.55176 18.256 7.55637C18.2725 7.56124 18.2882 7.5623 18.2929 7.55922C18.2967 7.55588 18.3202 7.55299 18.3447 7.55308C18.3834 7.5529 18.555 7.55351 18.6445 7.55401C18.6604 7.55426 18.6822 7.55712 18.6926 7.56019C18.7031 7.56327 18.7216 7.56428 18.7337 7.56161C18.7617 7.55645 18.9025 7.56853 18.9424 7.58031C18.9589 7.58518 18.9858 7.58685 19.0016 7.58438C19.0166 7.58165 19.0478 7.5846 19.0703 7.59126C19.092 7.59767 19.1271 7.60355 19.1476 7.60425C19.1682 7.60496 19.2277 7.61447 19.2798 7.62629C19.3323 7.63729 19.3848 7.64475 19.3969 7.64208C19.4308 7.636 19.9049 7.77501 19.9197 7.79543C19.9264 7.80456 19.9635 7.82266 20.014 7.84023C20.0602 7.85652 20.101 7.87482 20.1059 7.88072C20.1105 7.88745 20.1435 7.90344 20.1796 7.91856C20.2573 7.94951 20.3377 7.99022 20.3578 8.00864C20.3659 8.01638 20.3987 8.0332 20.4304 8.04704C20.4622 8.06088 20.4924 8.07692 20.497 8.08364C20.501 8.08929 20.5313 8.10806 20.5639 8.12569C20.5966 8.14251 20.6287 8.16179 20.6353 8.1682C20.6421 8.17379 20.6657 8.18969 20.6877 8.20153C20.7095 8.2142 20.7335 8.232 20.7419 8.24164C20.7498 8.25021 20.7707 8.26262 20.788 8.26774C20.8054 8.27286 20.8228 8.28425 20.8269 8.29261C20.8311 8.30097 20.8415 8.31031 20.8493 8.31262C20.858 8.31518 20.876 8.32764 20.8903 8.3399C20.9038 8.3519 20.9241 8.36949 20.9351 8.37991C20.9456 8.38924 20.9624 8.39955 20.971 8.40211C20.9806 8.40493 20.9932 8.41668 20.9992 8.42827C21.0052 8.43987 21.0169 8.45136 21.0256 8.45392C21.0421 8.45879 21.0892 8.50039 21.0907 8.51153C21.0914 8.51532 21.1065 8.52512 21.1248 8.53322C21.1421 8.54188 21.1563 8.55142 21.1551 8.55553C21.1531 8.5621 21.1951 8.60216 21.2081 8.606C21.2116 8.60703 21.228 8.6217 21.2437 8.63883C21.2594 8.65597 21.2776 8.67115 21.2854 8.67346C21.2923 8.6755 21.2972 8.6814 21.296 8.68551C21.2945 8.69044 21.2996 8.69552 21.3066 8.69757C21.3135 8.69962 21.3189 8.70387 21.3177 8.70798C21.3167 8.71127 21.3303 8.72599 21.3484 8.74117C21.3657 8.7561 21.3838 8.77482 21.3884 8.78155C21.3928 8.78909 21.4018 8.79709 21.4087 8.79914C21.4148 8.80093 21.42 8.80873 21.4216 8.81633C21.4222 8.82367 21.4309 8.83249 21.4405 8.83531C21.45 8.83813 21.4566 8.84454 21.4554 8.84865C21.454 8.85357 21.4573 8.85814 21.4626 8.85968C21.4678 8.86121 21.4756 8.86978 21.4806 8.8784C21.4865 8.88728 21.4978 8.89687 21.5074 8.89969C21.516 8.90225 21.5226 8.90866 21.5214 8.91277C21.52 8.9177 21.525 8.92632 21.5336 8.93242C21.5484 8.94304 21.5834 8.98731 21.6039 9.02015C21.6113 9.03036 21.6189 9.03975 21.6232 9.04103C21.6267 9.04206 21.6364 9.05386 21.6454 9.06812C21.6547 9.08156 21.6813 9.1162 21.7049 9.14462C21.7295 9.1733 21.7482 9.19936 21.7475 9.20183C21.7465 9.20511 21.7578 9.21825 21.7718 9.23133C21.7857 9.24523 21.7962 9.26083 21.7942 9.2674C21.7925 9.27315 21.7937 9.27885 21.7971 9.27987C21.805 9.28218 21.8429 9.33266 21.865 9.36956C21.8734 9.38274 21.8823 9.39429 21.8857 9.39531C21.8883 9.39608 21.9045 9.42138 21.922 9.45155C21.9395 9.48172 21.9609 9.51482 21.9702 9.52472C21.9796 9.53462 21.9853 9.54704 21.9839 9.55197C21.9827 9.55607 21.9973 9.5863 22.0161 9.61863C22.0349 9.65095 22.0495 9.68118 22.0495 9.68118C22.0488 9.68364 22.0556 9.69904 22.0656 9.71628C22.0747 9.73326 22.0882 9.76133 22.096 9.77971C22.1037 9.79808 22.1147 9.82184 22.1209 9.83261C22.1263 9.84313 22.1308 9.8534 22.1301 9.85586C22.1289 9.85997 22.1478 9.90128 22.1624 9.92878C22.1667 9.93633 22.17 9.94443 22.1693 9.9469C22.1686 9.94936 22.1726 9.96127 22.1786 9.97287C22.1838 9.98421 22.1924 10.0028 22.1987 10.0136C22.2041 10.0241 22.2086 10.0407 22.2086 10.0505C22.2087 10.0594 22.2158 10.0803 22.2241 10.097C22.2323 10.1137 22.2373 10.1322 22.2353 10.1387C22.2334 10.1453 22.2376 10.1599 22.2442 10.1726C22.2509 10.1853 22.2543 10.2024 22.2519 10.2106C22.2495 10.2188 22.251 10.2264 22.2553 10.2277C22.2597 10.229 22.2661 10.2487 22.2705 10.2723C22.2748 10.2959 22.2821 10.316 22.2865 10.3172C22.2917 10.3188 22.2935 10.3255 22.2915 10.3321C22.2893 10.3395 22.2933 10.355 22.2999 10.3676C22.3065 10.3803 22.3095 10.399 22.3064 10.4097C22.3032 10.4204 22.3034 10.4294 22.3077 10.4307C22.3155 10.433 22.3262 10.5022 22.3214 10.5186C22.3197 10.5244 22.3229 10.536 22.3281 10.5438C22.3334 10.5516 22.336 10.5649 22.3336 10.5731C22.331 10.5822 22.3325 10.5898 22.3377 10.5913C22.342 10.5926 22.3447 10.5996 22.3425 10.607C22.3406 10.6136 22.3424 10.6427 22.3472 10.6709C22.3521 10.6992 22.3541 10.7274 22.3522 10.734C22.3503 10.7406 22.352 10.7474 22.3564 10.7486C22.3607 10.7499 22.363 10.7613 22.3617 10.7752C22.3593 10.7995 22.3605 10.8275 22.3678 10.9083C22.3705 10.9341 22.369 10.9649 22.3654 10.9772C22.3617 10.9895 22.3623 11.0165 22.3665 11.0374C22.3707 11.0583 22.371 11.086 22.3669 11.1C22.3628 11.114 22.363 11.1355 22.3671 11.1474C22.3708 11.1601 22.3692 11.2007 22.3638 11.2384C22.3586 11.2753 22.3511 11.3293 22.3475 11.3577C22.3293 11.5086 22.2084 11.9185 22.139 12.0642C22.1244 12.0947 22.1005 12.1466 22.0869 12.1801C22.073 12.2144 22.0555 12.2449 22.0495 12.2494C22.0426 12.2536 22.0287 12.2781 22.0172 12.3042C22.006 12.3294 21.9931 12.3542 21.9881 12.3581C21.9832 12.362 21.968 12.3879 21.9532 12.4157C21.9182 12.483 21.8743 12.5585 21.8644 12.5663C21.8604 12.5704 21.8383 12.6068 21.8168 12.6478C21.7944 12.6885 21.7712 12.7254 21.7643 12.7296C21.7574 12.7338 21.7453 12.7526 21.736 12.7713C21.7273 12.791 21.7125 12.8126 21.7038 12.8198C21.695 12.827 21.6812 12.8453 21.6731 12.8599C21.665 12.8744 21.6538 12.8899 21.6491 12.893C21.6442 12.8969 21.6333 12.9115 21.6252 12.9261C21.6171 12.9407 21.6056 12.9543 21.6005 12.9554C21.5955 12.9566 21.5841 12.9729 21.5761 12.9902C21.5679 13.0083 21.5543 13.0257 21.5468 13.0289C21.5384 13.0318 21.5298 13.0417 21.5274 13.0499C21.5249 13.0581 21.5128 13.0769 21.4999 13.0918C21.487 13.1068 21.4673 13.1287 21.4574 13.14C21.4472 13.1522 21.4236 13.1809 21.406 13.2052C21.3876 13.2293 21.3638 13.2589 21.3539 13.2702C21.3224 13.3065 21.2726 13.373 21.2261 13.4379C21.2115 13.4586 21.1939 13.4766 21.1868 13.4781C21.1798 13.4796 21.1714 13.4887 21.169 13.497C21.1644 13.5126 21.1403 13.543 21.0925 13.5932C21.0776 13.6084 21.0651 13.6253 21.0632 13.6318C21.0612 13.6384 21.0476 13.6558 21.0327 13.6711C21.0178 13.6863 21.0037 13.7054 21.0013 13.7136C20.9986 13.7226 20.99 13.7326 20.9816 13.7355C20.9732 13.7383 20.9619 13.7511 20.9557 13.7626C20.9354 13.7995 20.8812 13.8809 20.8713 13.8887C20.8552 13.9018 20.8045 14.0225 20.801 14.0536C20.7998 14.0703 20.8052 14.0969 20.8137 14.1128C20.8295 14.1424 20.8303 14.1427 20.9315 14.1707C21.0038 14.1912 21.0415 14.1978 21.0624 14.1942C21.0793 14.1911 21.101 14.1913 21.1114 14.1943C21.1227 14.1977 21.1323 14.197 21.1335 14.1928C21.1347 14.1887 21.1503 14.1871 21.1686 14.1889C21.1867 14.1916 21.2091 14.1893 21.218 14.1847C21.2269 14.1802 21.2414 14.1791 21.2492 14.1814C21.2579 14.184 21.2717 14.1818 21.2795 14.1779C21.2866 14.1728 21.3078 14.1683 21.3257 14.1683C21.3437 14.1682 21.3591 14.1638 21.3603 14.1597C21.3615 14.1556 21.372 14.1552 21.3842 14.1588C21.3963 14.1623 21.4102 14.1602 21.4147 14.1544C21.4201 14.1488 21.4314 14.1459 21.4401 14.1484C21.4487 14.151 21.4663 14.149 21.4772 14.1442C21.512 14.1286 21.5243 14.1251 21.5676 14.1191C21.5911 14.1162 21.6105 14.1112 21.6112 14.1088C21.612 14.1063 21.6278 14.1038 21.6462 14.1021C21.6646 14.1004 21.6807 14.0971 21.6817 14.0938C21.6827 14.0905 21.693 14.0874 21.7044 14.0871C21.7156 14.0877 21.7294 14.0856 21.7358 14.083C21.7422 14.0804 21.7593 14.0739 21.7732 14.0682C21.7872 14.0624 21.8059 14.0599 21.8137 14.0622C21.8224 14.0648 21.8325 14.0624 21.837 14.0566C21.8416 14.0508 21.8607 14.0466 21.8789 14.0458C21.8977 14.046 21.9138 14.0427 21.915 14.0385C21.916 14.0353 21.9244 14.0324 21.9332 14.0314C21.9568 14.0312 21.9897 14.0222 22.0009 14.013C22.006 14.0083 22.017 14.0061 22.024 14.0082C22.0361 14.0118 22.0465 14.0086 22.0842 13.9929C22.0919 13.9889 22.1021 13.9866 22.1055 13.9876C22.1081 13.9884 22.1374 13.9818 22.1694 13.9725C22.2014 13.9632 22.2349 13.9552 22.2446 13.9545C22.2531 13.9544 22.262 13.9498 22.2635 13.9449C22.2647 13.9408 22.2719 13.9385 22.2789 13.9405C22.2858 13.9426 22.314 13.9366 22.3412 13.9277C22.3692 13.919 22.4101 13.9051 22.4342 13.897C22.458 13.8898 22.4831 13.8847 22.4909 13.887C22.4996 13.8896 22.5069 13.8872 22.5081 13.8831C22.5096 13.8782 22.5213 13.8736 22.5347 13.8731C22.548 13.8726 22.5598 13.868 22.561 13.8639C22.5622 13.8598 22.5805 13.8554 22.6006 13.8542C22.6219 13.8524 22.6422 13.8477 22.646 13.8443C22.6507 13.8413 22.6663 13.8396 22.682 13.8407C22.6977 13.8417 22.7138 13.8385 22.7183 13.8326C22.7229 13.8268 22.7374 13.8258 22.7512 13.8299C22.7651 13.834 22.7805 13.8331 22.785 13.8273C22.7896 13.8215 22.8126 13.8203 22.8396 13.8247C22.8657 13.8288 22.8985 13.8296 22.9132 13.8276C22.9519 13.8212 23.2601 13.9121 23.2891 13.9385C23.3002 13.949 23.3284 13.9653 23.3499 13.9753C23.3724 13.9855 23.3901 13.996 23.3888 14.0001C23.3879 14.0034 23.3992 14.013 23.415 14.0203C23.4305 14.0285 23.4457 14.041 23.4498 14.0494C23.4539 14.0577 23.4644 14.0671 23.4731 14.0696C23.4809 14.0719 23.4924 14.0807 23.4968 14.0882C23.5105 14.1092 23.5365 14.133 23.5512 14.1373C23.5582 14.1394 23.5633 14.1445 23.5621 14.1486C23.5608 14.1527 23.5661 14.1605 23.5732 14.1652C23.6015 14.1843 23.7455 14.4224 23.7401 14.4404C23.7389 14.4445 23.7443 14.4551 23.7519 14.4644C23.7595 14.4738 23.764 14.4876 23.7618 14.495C23.7596 14.5024 23.7638 14.5171 23.7709 14.5281C23.778 14.5391 23.7824 14.5529 23.7805 14.5595C23.7788 14.5652 23.7818 14.5742 23.788 14.5787C23.7943 14.5832 23.7978 14.603 23.7954 14.621C23.7935 14.6401 23.7962 14.6597 23.8024 14.6642C23.8095 14.669 23.8097 14.6842 23.8037 14.7047C23.7983 14.7228 23.798 14.7433 23.8021 14.7516C23.8074 14.7594 23.8062 14.7921 23.7998 14.8233C23.7943 14.8547 23.7919 14.8852 23.7957 14.8917C23.8057 14.9089 23.7535 15.073 23.7228 15.1229C23.7083 15.1463 23.6913 15.1815 23.6857 15.2004C23.6797 15.2209 23.6687 15.2391 23.6587 15.2442C23.6498 15.2487 23.6384 15.265 23.6338 15.2806C23.6292 15.2962 23.6189 15.3119 23.6105 15.3148C23.6018 15.3185 23.5892 15.3326 23.582 15.3475C23.5739 15.3621 23.5623 15.3756 23.5553 15.3771C23.548 15.3794 23.5319 15.3925 23.519 15.4075C23.5054 15.4213 23.4909 15.4322 23.4857 15.4307C23.4814 15.4294 23.4748 15.4355 23.4724 15.4437C23.4697 15.4528 23.4647 15.4602 23.4599 15.4606C23.4559 15.4612 23.4344 15.4736 23.4118 15.4893C23.3631 15.5231 23.2224 15.5941 23.2111 15.5908C23.2067 15.5895 23.2023 15.5917 23.2011 15.5959C23.1999 15.6 23.1842 15.6052 23.1655 15.6077C23.1479 15.6096 23.1261 15.6166 23.117 15.6219C23.1087 15.6275 23.093 15.6327 23.0814 15.6338C23.059 15.6361 23.0235 15.6444 23.0153 15.65C23.0015 15.6584 22.9118 15.681 22.9039 15.6787C22.8987 15.6772 22.8932 15.68 22.892 15.6841C22.8905 15.6891 22.8817 15.6901 22.8722 15.6872C22.8626 15.6844 22.8531 15.6879 22.8512 15.6944C22.8493 15.701 22.8415 15.705 22.8345 15.7029C22.8276 15.7009 22.8126 15.7036 22.8015 15.7092C22.7907 15.7141 22.7648 15.7216 22.7451 15.7247C22.725 15.7287 22.7074 15.7342 22.7062 15.7383C22.7052 15.7415 22.6947 15.742 22.6825 15.7384C22.6695 15.7346 22.6594 15.737 22.6574 15.7435C22.6555 15.7501 22.6345 15.7573 22.6099 15.7608C22.5853 15.7642 22.5645 15.7706 22.5633 15.7747C22.5619 15.7796 22.5531 15.7806 22.5435 15.7778C22.534 15.775 22.525 15.7768 22.5237 15.7809C22.5223 15.7858 22.5161 15.7876 22.5092 15.7855C22.5031 15.7837 22.491 15.7864 22.483 15.7912C22.475 15.796 22.4611 15.7981 22.4524 15.7956C22.4429 15.7927 22.4342 15.7964 22.4323 15.803C22.4301 15.8104 22.4209 15.813 22.4078 15.8092C22.3965 15.8059 22.3836 15.8083 22.3782 15.8138C22.3736 15.8196 22.3615 15.8223 22.352 15.8195C22.3424 15.8167 22.3334 15.8185 22.3319 15.8234C22.3307 15.8275 22.317 15.8324 22.301 15.8322C22.2857 15.833 22.2714 15.8368 22.2704 15.8401C22.2694 15.8434 22.2573 15.846 22.2444 15.8449C22.2304 15.8444 22.2138 15.8466 22.2051 15.8503C22.1778 15.8628 22.1635 15.8666 22.1389 15.87C22.125 15.8722 22.0958 15.8787 22.0733 15.8846C22.051 15.8897 22.0235 15.8967 22.0127 15.898C22.0017 15.9001 21.9744 15.9063 21.9521 15.9114C21.9297 15.9172 21.9015 15.9232 21.8887 15.9248C21.8766 15.9275 21.8658 15.9323 21.8645 15.9364C21.8636 15.9397 21.8557 15.941 21.847 15.9384C21.8392 15.9361 21.8205 15.9386 21.8057 15.9441C21.7909 15.9495 21.7731 15.9523 21.7652 15.95C21.7574 15.9477 21.7471 15.9509 21.7417 15.9564C21.7371 15.9622 21.7259 15.9652 21.7172 15.9626C21.7076 15.9598 21.6938 15.962 21.6858 15.9667C21.6778 15.9715 21.6665 15.9744 21.6604 15.9727C21.6544 15.9709 21.6431 15.9738 21.6351 15.9786C21.6271 15.9834 21.6132 15.9855 21.6046 15.983C21.5967 15.9807 21.582 15.9826 21.5723 15.9868C21.5634 15.9913 21.5478 15.993 21.5383 15.9902C21.5287 15.9874 21.516 15.989 21.5108 15.9937C21.4971 16.0048 21.4664 16.01 21.4314 16.0069C21.4157 16.0058 21.3988 16.0089 21.3951 16.0149C21.3908 16.0199 21.3704 16.0219 21.3503 16.0196C21.3303 16.0172 21.3081 16.0187 21.3001 16.0235C21.293 16.0285 21.2793 16.0299 21.2707 16.0273C21.2542 16.0225 21.2042 16.0256 21.1946 16.0326C21.191 16.0351 21.1708 16.0363 21.1494 16.0353C21.128 16.0343 21.1065 16.0369 21.1027 16.0403C21.0986 16.0444 21.0846 16.0439 21.0716 16.04C21.0586 16.0362 21.0389 16.0357 21.0274 16.0395C21.0162 16.0424 20.9929 16.0445 20.9763 16.0432C20.9597 16.0418 20.9341 16.0423 20.9192 16.045C20.9042 16.0478 20.8784 16.0455 20.8611 16.0404C20.8437 16.0353 20.8232 16.0346 20.816 16.0396C20.8091 16.0438 20.7792 16.043 20.7489 16.0368C20.7193 16.0316 20.6872 16.0284 20.6762 16.0305C20.6531 16.0353 20.5306 16.0126 20.3627 15.9737C20.2012 15.9359 20.0209 15.8693 19.8907 15.7988C19.8679 15.7867 19.823 15.7627 19.7905 15.7451C19.7577 15.7283 19.73 15.7103 19.7292 15.7065C19.7278 15.7016 19.7119 15.6915 19.6938 15.6826C19.6757 15.6737 19.66 15.6628 19.6578 15.6577C19.6564 15.6528 19.6443 15.6457 19.6296 15.6413C19.6157 15.6372 19.6054 15.6306 19.6066 15.6265C19.6078 15.6224 19.5976 15.6122 19.5827 15.6052C19.568 15.5973 19.5515 15.5861 19.5446 15.5806C19.5389 15.5744 19.493 15.535 19.4435 15.4918C19.3937 15.4494 19.3524 15.4104 19.3527 15.4061C19.3519 15.4023 19.3451 15.3967 19.3373 15.3944C19.3286 15.3918 19.3152 15.3798 19.3057 15.3672C19.2962 15.3545 19.2853 15.3433 19.2819 15.3423C19.2775 15.341 19.2703 15.3335 19.2657 15.3268C19.2468 15.298 19.2367 15.2843 19.2324 15.283C19.2324 15.283 19.2146 15.2599 19.1973 15.2325C19.1808 15.2053 19.1639 15.1825 19.1604 15.1814C19.157 15.1804 19.1354 15.1481 19.112 15.1091C19.0886 15.07 19.0661 15.0375 19.0626 15.0365C19.0591 15.0355 19.0553 15.0263 19.0553 15.0165C19.0554 15.0067 19.0489 14.9967 19.0419 14.9947C19.035 14.9926 19.0305 14.9886 19.0315 14.9853C19.0327 14.9812 19.0239 14.9599 19.0119 14.9367C18.9619 14.8407 18.9516 14.818 18.93 14.7634C18.9166 14.7318 18.9072 14.7031 18.9079 14.7006C18.9086 14.6982 18.9027 14.683 18.8942 14.6671C18.8857 14.6512 18.8803 14.6344 18.882 14.6287C18.8837 14.6229 18.8808 14.6167 18.8764 14.6154C18.8712 14.6139 18.8692 14.6079 18.8709 14.6022C18.8726 14.5964 18.8693 14.5821 18.8633 14.5705C18.857 14.5597 18.8507 14.5364 18.8487 14.5206C18.847 14.5041 18.842 14.4892 18.8376 14.4879C18.8333 14.4866 18.8308 14.4823 18.8322 14.4774C18.8361 14.4642 18.8216 14.376 18.8146 14.374C18.8112 14.3729 18.8096 14.3591 18.8116 14.3427C18.8127 14.3261 18.8098 14.3073 18.8045 14.2995C18.7993 14.2917 18.7978 14.2743 18.8019 14.2604C18.8058 14.2472 18.8056 14.2222 18.8002 14.2054C18.7957 14.1889 18.7948 14.1565 18.7979 14.1333C18.8018 14.1103 18.8023 14.0863 18.7994 14.0801C18.7974 14.0742 18.7987 14.0379 18.8033 14C18.8078 13.9621 18.8097 13.9269 18.8068 13.9207C18.8046 13.9156 18.8175 13.8462 18.8342 13.7671C18.8662 13.6203 18.9498 13.3753 18.9773 13.3495C18.9838 13.3433 18.9972 13.317 19.0076 13.2914C19.0191 13.2654 19.0376 13.228 19.0514 13.207C19.064 13.1866 19.0848 13.1481 19.0954 13.1218C19.1069 13.0957 19.1232 13.0692 19.1328 13.0623C19.1424 13.0553 19.1539 13.0355 19.159 13.0182C19.1638 13.0018 19.1768 12.977 19.1881 12.9643C19.1994 12.9515 19.226 12.9156 19.2464 12.885C19.2668 12.8544 19.2876 12.8284 19.2929 12.8264C19.2971 12.825 19.3099 12.8073 19.3205 12.7873C19.3312 12.7672 19.3455 12.7473 19.3522 12.7439C19.3589 12.7405 19.3678 12.7262 19.3722 12.7114C19.3763 12.6974 19.3863 12.6825 19.3947 12.6797C19.4034 12.676 19.4163 12.661 19.4246 12.6456C19.4329 12.6302 19.447 12.6112 19.4566 12.6042C19.4663 12.5972 19.4763 12.5823 19.4792 12.5724C19.4824 12.5618 19.4902 12.548 19.497 12.5411C19.5231 12.5166 19.5657 12.4649 19.5772 12.4451C19.5834 12.4335 19.5965 12.4213 19.6056 12.4159C19.6145 12.4114 19.6249 12.3984 19.6281 12.3877C19.6315 12.3762 19.6407 12.3674 19.6486 12.3661C19.6563 12.3657 19.6653 12.3576 19.6679 12.3486C19.6706 12.3396 19.6782 12.3266 19.6849 12.3197C19.6923 12.3138 19.7104 12.2942 19.7251 12.2762C19.7408 12.2585 19.7728 12.2233 19.7966 12.1972C19.8203 12.1712 19.8409 12.146 19.8424 12.1411C19.8436 12.137 19.8483 12.1339 19.8526 12.1352C19.8569 12.1365 19.8679 12.1218 19.8763 12.1029C19.8856 12.0842 19.8995 12.066 19.9081 12.0623C19.9156 12.0591 19.929 12.0425 19.9378 12.0255C19.9464 12.0093 19.9573 11.9946 19.9626 11.9926C19.9677 11.9914 19.9743 11.9818 19.9777 11.9703C19.9808 11.9596 19.987 11.9516 19.9913 11.9529C19.9957 11.9542 20.0063 11.9403 20.0154 11.9225C20.0247 11.9038 20.0388 11.8847 20.0468 11.88C20.0548 11.8752 20.0714 11.8542 20.0831 11.8335C20.0958 11.8131 20.1147 11.7875 20.1252 11.7772C20.135 11.7667 20.1469 11.7487 20.1505 11.7364C20.1539 11.7249 20.16 11.7169 20.1644 11.7182C20.1696 11.7197 20.1807 11.7043 20.1905 11.6839C20.1997 11.6625 20.2129 11.6432 20.2189 11.6387C20.2247 11.6351 20.2386 11.6106 20.2489 11.5851C20.2593 11.5596 20.2742 11.5345 20.2822 11.5297C20.3295 11.5008 20.4793 10.977 20.4471 10.955C20.4424 10.9519 20.4423 10.9393 20.4457 10.9278C20.4493 10.9155 20.4485 10.8894 20.4441 10.8693C20.4394 10.8501 20.4379 10.8264 20.4405 10.8174C20.4432 10.8083 20.4419 10.7999 20.4376 10.7986C20.4332 10.7974 20.431 10.7824 20.4333 10.7652C20.4344 10.7486 20.4303 10.7304 20.4241 10.7259C20.4188 10.7217 20.4149 10.7125 20.4166 10.7067C20.4185 10.7001 20.4141 10.6765 20.4058 10.6535C20.3932 10.6132 20.3879 10.5991 20.3645 10.5538C20.3593 10.5425 20.3555 10.5298 20.3565 10.5265C20.3611 10.5109 20.2655 10.3362 20.2008 10.2421C20.1795 10.2117 20.1567 10.1773 20.1502 10.1673C20.143 10.1563 20.1346 10.1467 20.1302 10.1454C20.1268 10.1444 20.1155 10.1312 20.1059 10.1159C20.0963 10.1005 20.0851 10.0874 20.0816 10.0864C20.0772 10.0851 20.0737 10.0778 20.0722 10.0702C20.0715 10.0629 20.0654 10.0548 20.0576 10.0525C20.0507 10.0505 20.0453 10.0462 20.0465 10.0421C20.0485 10.0355 20.044 10.0315 19.986 9.9787C19.9674 9.96162 19.9526 9.94474 19.9538 9.94063C19.955 9.93652 19.9508 9.9317 19.9447 9.92991C19.9386 9.92811 19.914 9.90924 19.8901 9.8879C19.8671 9.86682 19.8365 9.84261 19.8218 9.83471C19.8069 9.82764 19.7879 9.8122 19.7782 9.8004C19.7682 9.78942 19.7431 9.77219 19.7206 9.76199C19.699 9.75205 19.6825 9.74092 19.6835 9.73763C19.6861 9.7286 19.6503 9.70285 19.608 9.68322C19.5881 9.67378 19.5716 9.66266 19.57 9.6586C19.5686 9.65373 19.5494 9.64183 19.5278 9.63189C19.506 9.62276 19.4778 9.60641 19.4656 9.59656C19.4526 9.58645 19.4235 9.56984 19.4008 9.56046C19.3772 9.55083 19.3212 9.52627 19.2765 9.50505C19.1817 9.46189 19.1015 9.43643 19.0451 9.43231C19.0231 9.43027 18.9749 9.42409 18.9381 9.4177C18.8174 9.39817 18.6465 9.38257 18.631 9.39048C18.6254 9.39331 18.6095 9.39306 18.5973 9.38948C18.5721 9.38205 18.4671 9.3832 18.4504 9.39168C18.4449 9.39451 18.4283 9.39318 18.4127 9.38857C18.3979 9.38422 18.3731 9.38495 18.3583 9.3904C18.3435 9.39585 18.3222 9.39761 18.3101 9.39403C18.2988 9.3907 18.2823 9.3921 18.2743 9.39687C18.2672 9.40191 18.2511 9.40521 18.2406 9.40567C18.2021 9.40503 18.1272 9.41596 18.1255 9.42171C18.1243 9.42582 18.1183 9.42675 18.1114 9.4247C18.1053 9.42291 18.0875 9.42569 18.0727 9.43114C18.0579 9.43659 18.0401 9.43937 18.0322 9.43707C18.0244 9.43476 18.0174 9.43626 18.0159 9.44119C18.0147 9.44529 18.0008 9.451 17.9847 9.4543C17.955 9.45894 17.8424 9.49535 17.7807 9.51911C17.6764 9.55891 17.6316 9.57962 17.5412 9.62706C17.4064 9.69711 17.2557 9.78571 17.2216 9.81494C17.2142 9.82079 17.1865 9.84119 17.1586 9.85887C17.1305 9.87736 17.1013 9.89643 17.0942 9.90146C17.0861 9.90624 17.0584 9.92664 17.0329 9.9459C17.0066 9.96491 16.9818 9.98172 16.9772 9.98126C16.9732 9.98188 16.9681 9.9866 16.9664 9.99235C16.9647 9.9981 16.9482 10.0093 16.9304 10.0183C16.9118 10.0271 16.8959 10.0394 16.8942 10.0452C16.8922 10.0517 16.8842 10.0565 16.8766 10.0569C16.8687 10.0582 16.8606 10.063 16.8592 10.0679C16.8575 10.0736 16.8358 10.0896 16.8111 10.1028C16.7865 10.1161 16.765 10.1312 16.7638 10.1353C16.7624 10.1402 16.7487 10.1514 16.734 10.1595C16.6612 10.2015 16.6472 10.2107 16.6455 10.2165C16.6443 10.2206 16.6353 10.2286 16.6259 10.2348C16.5471 10.2812 16.4827 10.3238 16.4854 10.3273C16.4879 10.3316 16.4343 10.3694 16.3599 10.4171C16.3469 10.4257 16.3134 10.4498 16.2863 10.4713C16.2584 10.4925 16.2291 10.5115 16.2221 10.513C16.2142 10.5143 16.2066 10.5209 16.2046 10.5275C16.2027 10.5341 16.1928 10.5419 16.1824 10.5451C16.1712 10.548 16.1549 10.5584 16.1455 10.5681C16.136 10.5778 16.1201 10.5901 16.1101 10.5952C16.0636 10.6217 16.0523 10.6281 16.0093 10.6619C15.9838 10.6811 15.9585 10.6996 15.9536 10.7035C15.9481 10.7063 15.9304 10.7181 15.9142 10.7285C15.8976 10.7397 15.8835 10.7525 15.8823 10.7566C15.8808 10.7615 15.8734 10.7674 15.8655 10.7686C15.8576 10.7698 15.8386 10.783 15.8231 10.7972C15.8079 10.8105 15.7916 10.8209 15.7872 10.8196C15.7829 10.8183 15.7777 10.8231 15.7758 10.8296C15.7739 10.8362 15.7678 10.8407 15.7635 10.8394C15.7583 10.8379 15.7536 10.8409 15.7524 10.845C15.7509 10.85 15.7267 10.8714 15.6974 10.894C15.6683 10.9158 15.6398 10.9386 15.6344 10.9442C15.611 10.9694 15.589 10.9862 15.5671 10.9966C15.5548 11.0029 15.5425 11.0126 15.5406 11.0192C15.5387 11.0258 15.5282 11.0325 15.5172 11.0346C15.5062 11.0367 15.495 11.0459 15.4923 11.055C15.4896 11.064 15.4809 11.0712 15.4732 11.0717C15.4653 11.0729 15.4573 11.0777 15.4554 11.0842C15.4537 11.09 15.44 11.1011 15.4256 11.1085C15.4111 11.1158 15.3952 11.1281 15.3891 11.1361C15.3841 11.1436 15.3668 11.1572 15.351 11.166C15.3352 11.1747 15.3216 11.1859 15.3204 11.19C15.3189 11.1949 15.3055 11.2052 15.2897 11.214C15.2739 11.2227 15.26 11.2347 15.2581 11.2412C15.2561 11.2478 15.2425 11.259 15.2269 11.2669C15.2114 11.2748 15.1979 11.2851 15.1965 11.29C15.1953 11.2942 15.1814 11.3061 15.1651 11.3165C15.1491 11.3261 15.1347 11.3397 15.1327 11.3462C15.1308 11.3528 15.1241 11.3562 15.1181 11.3544C15.112 11.3526 15.0977 11.3627 15.0861 11.3763C15.0746 11.3898 15.0629 11.4006 15.0586 11.3994C15.0551 11.3983 15.0394 11.4098 15.0246 11.4251C15.0097 11.4403 14.994 11.4518 14.9897 11.4505C14.9853 11.4492 14.9728 11.4598 14.963 11.4739C14.9532 11.4879 14.9365 11.5027 14.9264 11.505C14.916 11.5082 14.8998 11.5186 14.8903 11.5283C14.8811 11.5372 14.8663 11.5489 14.8577 11.5526C14.8499 11.5566 14.8418 11.5649 14.8401 11.5707C14.8384 11.5764 14.8272 11.5856 14.8152 11.591C14.8032 11.5964 14.792 11.6056 14.7901 11.6122C14.7881 11.6187 14.7767 11.6287 14.7642 11.6358C14.7518 11.6428 14.7396 11.6553 14.7372 11.6635C14.7348 11.6717 14.7269 11.6792 14.7192 11.6797C14.7115 11.6801 14.699 11.6907 14.6923 11.7038C14.6849 11.716 14.6689 11.7318 14.6578 11.7374C14.6467 11.7431 14.6345 11.7556 14.6321 11.7638C14.6297 11.772 14.6209 11.7793 14.6141 11.7799C14.6065 11.7803 14.5929 11.7942 14.5844 11.8104C14.5761 11.8258 14.5624 11.8433 14.5538 11.847C14.546 11.8509 14.5367 11.8633 14.5335 11.874C14.5306 11.8839 14.5214 11.8928 14.5135 11.894C14.505 11.8942 14.4959 11.9058 14.4905 11.9238C14.4854 11.9411 14.4761 11.9535 14.4684 11.9539C14.4608 11.9543 14.4474 11.9709 14.4379 11.9904C14.4283 12.01 14.412 12.0364 14.4018 12.0486C14.3908 12.0605 14.3745 12.0869 14.3656 12.1075C14.3569 12.1273 14.3417 12.1469 14.3342 12.1501C14.3235 12.1541 14.3136 12.1717 14.3051 12.2004C14.2967 12.2292 14.2828 12.2537 14.2657 12.2701C14.2446 12.2906 14.2345 12.3118 14.2178 12.3684C14.2045 12.4136 14.1881 12.4499 14.1747 12.4665C14.1442 12.503 14.0387 12.8603 14.048 12.8961C14.0519 12.9115 14.0466 12.9457 14.0331 12.9944C14.0159 13.0527 14.0128 13.0759 14.0195 13.1047C14.0242 13.1239 14.0235 13.155 14.0179 13.1739C14.0123 13.1928 14.0098 13.2206 14.0126 13.2366C14.0152 13.2534 14.0141 13.2826 14.0109 13.3031C14.0077 13.3236 14.009 13.3481 14.0137 13.3575C14.0185 13.3669 14.0195 13.3922 14.0161 13.4135C14.0129 13.434 14.0136 13.4539 14.0183 13.4571C14.0231 13.4603 14.0242 13.482 14.02 13.5058C14.0169 13.529 14.0187 13.5518 14.024 13.5561C14.0302 13.5606 14.0323 13.5728 14.0289 13.5843C14.0255 13.5958 14.028 13.6162 14.0342 13.6305C14.0403 13.6448 14.0423 13.6669 14.0389 13.6784C14.0353 13.6907 14.0387 13.7078 14.0463 13.7172C14.0539 13.7265 14.0584 13.7404 14.0559 13.7486C14.0535 13.7568 14.0574 13.7722 14.0648 13.7824C14.0719 13.7935 14.0754 13.8106 14.0725 13.8204C14.0693 13.8311 14.0704 13.8403 14.0747 13.8416C14.079 13.8429 14.0837 13.8559 14.0859 13.8708C14.0872 13.8855 14.0938 13.9017 14.1 13.9062C14.1062 13.9107 14.108 13.9238 14.1049 13.9345C14.1015 13.946 14.1038 13.9636 14.1109 13.9746C14.1172 13.9854 14.1233 14.0033 14.1227 14.0147C14.1233 14.0256 14.1278 14.0359 14.1321 14.0372C14.1365 14.0384 14.1387 14.0436 14.1373 14.0485C14.1358 14.0534 14.142 14.0677 14.1515 14.0804C14.1609 14.093 14.1664 14.1098 14.1639 14.118C14.1615 14.1262 14.1667 14.1375 14.1744 14.1434C14.1823 14.1484 14.1912 14.1662 14.1932 14.182C14.197 14.2108 14.257 14.324 14.27 14.3279C14.2743 14.3291 14.2829 14.3415 14.29 14.3561C14.297 14.3707 14.3065 14.3833 14.3108 14.3846C14.316 14.3861 14.3266 14.3982 14.3347 14.4122C14.3431 14.4254 14.3616 14.4522 14.376 14.4708C14.3901 14.4901 14.4048 14.5105 14.4085 14.517C14.4125 14.5226 14.4219 14.5325 14.4287 14.5381C14.4367 14.5431 14.4417 14.5518 14.4405 14.5559C14.4393 14.56 14.4451 14.5689 14.4548 14.5744C14.4643 14.5808 14.4766 14.5933 14.4831 14.6033C14.5201 14.6633 14.5342 14.6827 14.5429 14.6852C14.549 14.687 14.5534 14.6946 14.554 14.7019C14.5555 14.7095 14.5599 14.717 14.566 14.7188C14.5712 14.7204 14.5786 14.7306 14.582 14.7414C14.5854 14.7522 14.5936 14.7627 14.6014 14.765C14.6093 14.7673 14.6205 14.7804 14.6266 14.7948C14.6328 14.8091 14.644 14.8222 14.6527 14.8248C14.6605 14.8271 14.6738 14.8426 14.681 14.8599C14.6893 14.8766 14.7 14.8914 14.7058 14.894C14.7119 14.8958 14.7231 14.909 14.7319 14.924C14.7407 14.9391 14.7519 14.9523 14.7562 14.9535C14.7614 14.9551 14.7737 14.9712 14.7828 14.9882C14.7926 15.0062 14.805 15.0215 14.8094 15.0228C14.8146 15.0243 14.8258 15.0375 14.8354 15.0528C14.8453 15.0673 14.8594 15.0867 14.8684 15.0947C14.8869 15.1118 14.8901 15.1172 14.9218 15.1631C14.9344 15.1811 14.9475 15.1975 14.951 15.1985C14.9544 15.1996 14.9658 15.2154 14.9767 15.2329C14.9873 15.2512 14.9998 15.2665 15.0041 15.2678C15.0128 15.2704 15.0225 15.2822 15.0626 15.3413C15.0746 15.3583 15.0882 15.373 15.0925 15.3743C15.0969 15.3755 15.1072 15.3884 15.1151 15.4032C15.123 15.4181 15.136 15.4317 15.1429 15.4338C15.1505 15.4369 15.163 15.4522 15.1712 15.4689C15.1784 15.4862 15.1891 15.501 15.1943 15.5025C15.2004 15.5043 15.2095 15.515 15.2155 15.5266C15.2215 15.5382 15.2315 15.5492 15.2376 15.551C15.2437 15.5528 15.2532 15.5654 15.2593 15.5797C15.2657 15.5932 15.2798 15.6126 15.292 15.6224C15.3042 15.6323 15.3173 15.6486 15.3212 15.6578C15.3248 15.6678 15.3333 15.6775 15.3394 15.6793C15.3455 15.6811 15.3577 15.6972 15.3677 15.7144C15.3775 15.7325 15.3917 15.7483 15.3995 15.7506C15.4082 15.7531 15.4194 15.7663 15.4244 15.7812C15.4297 15.7952 15.4445 15.8156 15.4573 15.8266C15.4692 15.8372 15.4887 15.8608 15.5004 15.8786C15.5119 15.8972 15.5253 15.9127 15.5313 15.9145C15.5366 15.916 15.546 15.9287 15.5522 15.943C15.5584 15.9573 15.5678 15.9699 15.573 15.9715C15.5791 15.9732 15.5912 15.9866 15.6008 16.002C15.6105 16.0173 15.6226 16.0307 15.6269 16.032C15.6321 16.0335 15.6376 16.0405 15.6391 16.0481C15.6409 16.0549 15.651 16.0686 15.6615 16.0779C15.6719 16.0872 15.6833 16.1031 15.6867 16.1139C15.6903 16.1239 15.6997 16.1338 15.7066 16.1359C15.7136 16.1379 15.7275 16.1546 15.7393 16.1723C15.7499 16.1906 15.7633 16.2062 15.7685 16.2077C15.7737 16.2092 15.7858 16.2226 15.7954 16.238C15.805 16.2533 15.8188 16.2672 15.8267 16.2695C15.8336 16.2716 15.838 16.2791 15.836 16.2857C15.8341 16.2923 15.8385 16.2998 15.8454 16.3019C15.8524 16.3039 15.8575 16.309 15.8563 16.3131C15.8551 16.3172 15.8663 16.3303 15.8806 16.3426C15.8949 16.3548 15.9059 16.3688 15.9047 16.3729C15.9032 16.3778 15.9074 16.3827 15.9144 16.3847C15.9213 16.3868 15.9326 16.3999 15.9404 16.4147C15.9681 16.4649 15.974 16.4577 16.014 16.3221C16.0433 16.2227 16.0515 16.1823 16.0519 16.1297C16.0523 16.0932 16.059 16.0416 16.067 16.0145C16.0755 15.9858 16.0786 15.9527 16.0749 15.9365C16.071 15.921 16.0719 15.8829 16.076 15.8529C16.0804 15.822 16.0808 15.7918 16.078 15.7856C16.0751 15.7794 16.0738 15.7486 16.0751 15.7186C16.0766 15.6878 16.0738 15.6557 16.069 15.6463C16.0645 15.636 16.0609 15.6162 16.0618 15.6004C16.0633 15.5857 16.0595 15.5667 16.0543 15.5589C16.0488 15.5519 16.0462 15.5413 16.0477 15.5364C16.0511 15.5249 16.0308 15.4243 16.0231 15.4184C16.0201 15.4157 16.0201 15.4059 16.0228 15.3969C16.0255 15.3879 16.0226 15.3719 16.0153 15.3616C16.0088 15.3517 16.0027 15.3338 16.0026 15.3213C16.0026 15.3088 15.9976 15.2904 15.9922 15.2798C15.9823 15.2591 15.9622 15.1897 15.9515 15.1365C15.9474 15.1184 15.9422 15.1008 15.9403 15.0975C15.9376 15.0941 15.9177 15.04 15.8965 14.9775C15.8745 14.9147 15.8546 14.8606 15.8518 14.8571C15.8491 14.8536 15.8447 14.8398 15.8411 14.8263C15.8316 14.785 15.7852 14.6865 15.773 14.6829C15.768 14.6806 15.7643 14.6741 15.7657 14.6692C15.7674 14.6634 15.7568 14.6389 15.7413 14.6146C15.7266 14.5907 15.6986 14.5386 15.6789 14.4998C15.622 14.3857 15.5428 14.248 15.5341 14.2454C15.5289 14.2439 15.5242 14.2309 15.5232 14.2154C15.5227 14.201 15.5183 14.1872 15.5131 14.1856C15.5087 14.1844 15.5039 14.1687 15.5036 14.1507C15.5021 14.1333 15.4972 14.1149 15.4909 14.1104C15.4847 14.1058 15.4819 14.0961 15.4841 14.0887C15.4863 14.0813 15.4823 14.0596 15.4748 14.0404C15.4672 14.0212 15.4642 13.9962 15.4676 13.9847C15.4713 13.9724 15.4683 13.9537 15.4612 13.9426C15.4519 13.9292 15.4513 13.912 15.4581 13.889C15.4637 13.8701 15.468 13.833 15.4684 13.8063C15.4693 13.7423 15.5227 13.558 15.5572 13.5021C15.5705 13.4793 15.5916 13.4399 15.6028 13.4147C15.6147 13.387 15.6277 13.3685 15.6357 13.3672C15.6431 13.3676 15.6562 13.3519 15.6655 13.3332C15.6739 13.3142 15.6911 13.2943 15.702 13.2895C15.7129 13.2846 15.7246 13.2738 15.7267 13.2664C15.7289 13.259 15.7438 13.2438 15.7606 13.2317C15.7773 13.2197 15.7917 13.2061 15.7929 13.202C15.7944 13.1971 15.8191 13.1803 15.8476 13.1637C15.9226 13.1206 15.9554 13.099 15.9576 13.0916C15.9585 13.0883 15.9647 13.0866 15.9708 13.0884C15.9777 13.0904 15.9965 13.0844 16.0128 13.074C16.0297 13.0647 16.0535 13.0574 16.0667 13.0577C16.0787 13.0586 16.0935 13.0531 16.0985 13.0457C16.1035 13.0382 16.1206 13.0317 16.1359 13.0308C16.151 13.0308 16.1752 13.0255 16.1883 13.0195C16.2017 13.0127 16.2212 13.0104 16.2316 13.0135C16.242 13.0166 16.2567 13.0147 16.2648 13.0099C16.2728 13.0051 16.2965 13.0014 16.3182 13.0016C16.339 13.0014 16.3622 12.9994 16.37 12.9954C16.3767 12.992 16.4118 12.9944 16.4473 13.0021C16.483 13.0091 16.5244 13.0124 16.5403 13.0099C16.5781 13.0032 16.7838 13.0639 16.818 13.0919C16.8317 13.1031 16.8649 13.1218 16.891 13.1322C16.9178 13.1437 16.9405 13.1566 16.9418 13.1615C16.9441 13.1666 16.9562 13.1737 16.9709 13.1781C16.9848 13.1822 16.9951 13.1888 16.9939 13.1929C16.9927 13.197 17.0042 13.2093 17.0192 13.2191C17.0342 13.2289 17.0457 13.2412 17.0445 13.2453C17.0433 13.2494 17.0492 13.2548 17.0579 13.2573C17.0666 13.2599 17.0794 13.2708 17.0863 13.2827C17.0934 13.2937 17.107 13.3084 17.1173 13.315C17.127 13.3206 17.1418 13.3375 17.1497 13.3523C17.1579 13.3663 17.17 13.3797 17.1752 13.3812C17.1812 13.383 17.1948 13.3977 17.2051 13.4142C17.2377 13.4666 17.4244 13.7932 17.4392 13.8262C17.4475 13.8429 17.4709 13.8882 17.4928 13.9259C17.5136 13.9642 17.5302 13.9976 17.5294 14.0001C17.5287 14.0026 17.5461 14.0363 17.5689 14.0743C17.5914 14.1131 17.6121 14.1611 17.6137 14.1813C17.6165 14.2008 17.6234 14.2189 17.6303 14.221C17.6364 14.2228 17.6422 14.2352 17.6409 14.2491C17.6407 14.2624 17.6459 14.2801 17.6529 14.2884C17.6601 14.2959 17.664 14.3148 17.6636 14.329C17.6629 14.344 17.6676 14.357 17.6745 14.359C17.6815 14.3611 17.6852 14.3675 17.6833 14.3741C17.6813 14.3807 17.682 14.388 17.685 14.3907C17.6936 14.3968 17.7113 14.4485 17.7203 14.4886C17.7243 14.5068 17.7316 14.5268 17.7367 14.5319C17.7427 14.5372 17.7455 14.547 17.7438 14.5527C17.7421 14.5585 17.7465 14.5723 17.7537 14.5833C17.7608 14.5943 17.7652 14.6081 17.7633 14.6147C17.7616 14.6205 17.766 14.6343 17.7733 14.6445C17.7805 14.6555 17.7846 14.6701 17.7822 14.6784C17.7798 14.6866 17.7813 14.6942 17.7848 14.6952C17.7917 14.6972 17.8023 14.7352 17.8201 14.8154C17.8239 14.8344 17.8311 14.8517 17.8354 14.853C17.8398 14.8543 17.8411 14.8627 17.8384 14.8717C17.8357 14.8808 17.8396 14.89 17.8466 14.892C17.8535 14.8941 17.8576 14.9024 17.8552 14.9106C17.853 14.918 17.8584 14.9446 17.8662 14.9692C17.8741 14.9939 17.8797 15.0196 17.8775 15.027C17.8753 15.0344 17.8795 15.0491 17.8866 15.0601C17.8937 15.0711 17.8969 15.089 17.8938 15.0997C17.8909 15.1096 17.8925 15.1199 17.8978 15.1214C17.9021 15.1227 17.9074 15.1368 17.9078 15.1512C17.9089 15.1667 17.9127 15.1794 17.9162 15.1804C17.9197 15.1815 17.9231 15.1986 17.9239 15.2184C17.9237 15.238 17.9281 15.2554 17.9315 15.2564C17.9359 15.2577 17.9377 15.2707 17.937 15.2857C17.9355 15.3005 17.9399 15.3241 17.946 15.3384C17.9522 15.3527 17.9556 15.3698 17.9537 15.3764C17.9518 15.3829 17.954 15.4104 17.9585 15.4367C17.9636 15.4641 17.9673 15.4965 17.9663 15.5096C17.9661 15.5229 17.9698 15.5392 17.9751 15.547C17.9805 15.554 17.9804 15.5736 17.9753 15.5908C17.9702 15.6081 17.971 15.6279 17.9762 15.6357C17.9815 15.6435 17.9847 15.6552 17.9827 15.6617C17.981 15.6675 17.983 15.6895 17.9872 15.7104C17.9914 15.7313 17.992 15.7582 17.9883 15.7706C17.9845 15.7837 17.9843 15.8033 17.9886 15.8144C17.9927 15.8263 17.9936 15.8552 17.9903 15.8792C17.9858 15.9038 17.9877 15.9293 17.9924 15.9361C17.9978 15.943 17.9977 15.9626 17.9926 15.9799C17.9875 15.9972 17.9844 16.0364 17.9846 16.0677C17.9848 16.099 17.9794 16.1528 17.9723 16.1864C17.9649 16.2209 17.9618 16.2539 17.9653 16.2612C17.9682 16.2674 17.9645 16.3056 17.9559 16.3441C17.948 16.3838 17.9432 16.4288 17.9454 16.4437C17.9478 16.4614 17.9359 16.524 17.9146 16.6088C17.8952 16.6843 17.8795 16.76 17.8801 16.7772C17.8814 16.8204 17.7912 17.1296 17.767 17.1635C17.7572 17.1776 17.7277 17.2519 17.7017 17.3273C17.6744 17.4103 17.6485 17.4723 17.6388 17.4829C17.6293 17.4926 17.6098 17.5333 17.5944 17.5725C17.5789 17.6125 17.5559 17.6584 17.5431 17.6761C17.5306 17.6929 17.5154 17.7251 17.5091 17.7465C17.5028 17.7678 17.4883 17.7948 17.4766 17.8056C17.4647 17.8173 17.4476 17.8462 17.4378 17.8701C17.4279 17.8939 17.4116 17.9204 17.4026 17.9284C17.3928 17.9362 17.382 17.9536 17.3783 17.9659C17.3747 17.9783 17.3623 17.9978 17.3515 18.0089C17.3249 18.035 17.3109 18.0826 17.3282 18.0878C17.336 18.0901 17.3488 18.1045 17.3573 18.1205C17.3724 18.149 17.3934 18.174 17.4176 18.1909C17.4247 18.1957 17.4312 18.2057 17.4319 18.213C17.4325 18.2203 17.4389 18.2276 17.4467 18.2299C17.4537 18.2319 17.4588 18.237 17.4578 18.2403C17.4568 18.2436 17.4669 18.2573 17.4799 18.2709C17.4922 18.2835 17.5102 18.3058 17.5192 18.32C17.5282 18.3343 17.5405 18.3469 17.5466 18.3487C17.5527 18.3504 17.5579 18.3582 17.5586 18.3656C17.5601 18.3732 17.5645 18.3807 17.5688 18.382C17.5766 18.3843 17.6717 18.4972 17.6793 18.5128C17.6809 18.5169 17.6873 18.5241 17.6935 18.5286C17.6995 18.534 17.7139 18.5489 17.726 18.5623C17.7373 18.5755 17.7549 18.5923 17.7639 18.6003C17.774 18.6077 17.7807 18.6169 17.7797 18.6202C17.7785 18.6243 17.7908 18.6404 17.8065 18.6575C17.8224 18.6738 17.8344 18.6908 17.8334 18.694C17.8325 18.6973 17.8367 18.7021 17.8436 18.7042C17.8497 18.706 17.8657 18.7223 17.8772 18.7409C17.8898 18.7589 17.9037 18.7755 17.9081 18.7768C17.9133 18.7783 17.9215 18.7888 17.9275 18.8004C17.9327 18.8117 17.9427 18.8227 17.9496 18.8248C17.9565 18.8268 17.9618 18.8346 17.9633 18.8422C17.964 18.8495 17.9692 18.8573 17.9753 18.8591C17.9814 18.8609 17.9977 18.8791 18.0105 18.8999C18.0241 18.9209 18.0423 18.9423 18.0509 18.9484C18.0597 18.9537 18.0705 18.9649 18.0743 18.9714C18.088 18.9951 18.1751 19.0967 18.1829 19.099C18.1864 19.1 18.1929 19.11 18.1963 19.1208C18.1997 19.1316 18.2088 19.1423 18.2175 19.1449C18.2253 19.1472 18.2418 19.1646 18.2545 19.1826C18.2668 19.2014 18.2855 19.2212 18.2961 19.227C18.3055 19.2334 18.3131 19.2428 18.3112 19.2493C18.3092 19.2559 18.3139 19.2626 18.3208 19.2647C18.3278 19.2667 18.3326 19.2726 18.3314 19.2767C18.33 19.2817 18.3342 19.2865 18.3403 19.2883C18.3472 19.2903 18.3584 19.3035 18.3663 19.3183C18.3742 19.3331 18.3898 19.3475 18.4011 19.3509C18.4123 19.3542 18.4196 19.3617 18.4176 19.3683C18.4157 19.3748 18.4279 19.391 18.4446 19.4048C18.4613 19.4186 18.4742 19.4323 18.4733 19.4356C18.4723 19.4389 18.4836 19.4547 18.4981 19.4697C18.5132 19.4858 18.5275 19.5043 18.5293 19.5111C18.5311 19.5178 18.5374 19.5251 18.5418 19.5263C18.547 19.5279 18.5631 19.5469 18.5784 19.5684C18.5929 19.5897 18.609 19.6087 18.6133 19.61C18.6168 19.611 18.6249 19.6187 18.6293 19.6263C18.6515 19.6596 18.6594 19.6682 18.6698 19.6713C18.6767 19.6733 18.685 19.6838 18.6892 19.6949C18.6935 19.706 18.7035 19.7169 18.7122 19.7195C18.7209 19.7221 18.7268 19.7274 18.7256 19.7315C18.7244 19.7356 18.7379 19.7539 18.7562 19.7718C18.7743 19.7905 18.7877 19.8088 18.7868 19.8121C18.7856 19.8162 18.7928 19.8237 18.8031 19.8303C18.8137 19.8361 18.8296 19.8524 18.8386 19.8666C18.8476 19.8809 18.8654 19.9004 18.8793 19.9108C18.8922 19.9217 18.9021 19.9327 18.9009 19.9368C18.8997 19.9409 18.9048 19.946 18.9118 19.9481C18.9187 19.9501 18.9236 19.956 18.9224 19.9601C18.9209 19.965 18.9251 19.9699 18.9321 19.9719C18.9382 19.9737 18.9485 19.9866 18.9538 20.0006C18.9591 20.0147 18.9703 20.0278 18.9781 20.0301C18.9859 20.0324 19.0006 20.0466 19.0111 20.0622C19.0414 20.1068 19.0462 20.1127 19.0558 20.1156C19.0601 20.1168 19.0637 20.1206 19.0625 20.1247C19.0615 20.128 19.0774 20.1478 19.0969 20.1679C19.1163 20.1888 19.1323 20.2078 19.1311 20.2119C19.1302 20.2152 19.1355 20.2195 19.1425 20.2215C19.1494 20.2236 19.1547 20.2278 19.1535 20.2319C19.1518 20.2377 19.1582 20.2449 19.2006 20.2833C19.2126 20.294 19.2254 20.3112 19.2293 20.3204C19.233 20.3304 19.2415 20.34 19.2467 20.3416C19.2527 20.3433 19.261 20.3538 19.2653 20.3649C19.2695 20.376 19.2795 20.387 19.2882 20.3895C19.2969 20.3921 19.3031 20.3966 19.3019 20.4007C19.3009 20.404 19.3128 20.4182 19.3274 20.4324C19.343 20.4468 19.3568 20.4607 19.3587 20.4639C19.3603 20.468 19.3735 20.4808 19.3887 20.4933C19.4039 20.5058 19.4168 20.523 19.4183 20.5306C19.419 20.5379 19.4251 20.546 19.4329 20.5483C19.4398 20.5504 19.4447 20.5563 19.4435 20.5604C19.442 20.5653 19.448 20.5706 19.4567 20.5732C19.4645 20.5755 19.4745 20.5865 19.4779 20.5973C19.4813 20.6081 19.4904 20.6189 19.4999 20.6217C19.5138 20.6258 19.5232 20.6357 19.5555 20.6827C19.5595 20.6884 19.5778 20.7063 19.594 20.7218C19.6111 20.7375 19.6254 20.756 19.6263 20.7625C19.627 20.7699 19.6359 20.7779 19.6464 20.781C19.6568 20.784 19.6693 20.7958 19.6754 20.8074C19.6805 20.8187 19.6896 20.8294 19.6957 20.8312C19.7018 20.833 19.7156 20.8469 19.7261 20.8625C19.7366 20.8781 19.7478 20.8913 19.7513 20.8923C19.7547 20.8933 19.7661 20.9092 19.777 20.9267C19.7885 20.9452 19.801 20.9605 19.8062 20.9621C19.8105 20.9633 19.8141 20.9671 19.8129 20.9712C19.8119 20.9745 19.8203 20.9939 19.8309 21.0158C19.8408 21.0366 19.8592 21.0733 19.8701 21.097C19.881 21.1208 19.8941 21.147 19.8985 21.1545C19.9017 21.1626 19.9048 21.1715 19.9035 21.1756C19.9026 21.1789 19.9072 21.208 19.9131 21.2392C19.919 21.2704 19.9222 21.3044 19.9193 21.3142C19.9164 21.3241 19.9205 21.3387 19.9286 21.3465C19.9382 21.3555 19.9409 21.3688 19.9368 21.3828C19.9331 21.3951 19.9337 21.4221 19.9379 21.443C19.9448 21.4771 19.941 21.4965 19.8867 21.6806C19.8312 21.8687 19.8264 21.8816 19.8041 21.8964C19.7912 21.9051 19.7778 21.9217 19.7744 21.9332C19.771 21.9447 19.7612 21.9588 19.7523 21.9633C19.744 21.9689 19.7241 21.9916 19.7084 22.0128C19.6925 22.0349 19.6748 22.0565 19.6701 22.0596C19.6643 22.0632 19.6345 22.0875 19.6027 22.112C19.5716 22.1377 19.5419 22.1584 19.5373 22.1579C19.5325 22.1583 19.5275 22.1622 19.5263 22.1663C19.5234 22.1761 19.3663 22.261 19.3559 22.258C19.3515 22.2567 19.3327 22.2628 19.313 22.2721C19.2935 22.2807 19.2736 22.2873 19.2684 22.2857C19.2632 22.2842 19.2458 22.2889 19.2294 22.2966C19.213 22.3042 19.1947 22.3086 19.1886 22.3068C19.1816 22.3048 19.173 22.3085 19.1676 22.314C19.1628 22.3207 19.1483 22.3218 19.1318 22.3169C19.1171 22.3125 19.0932 22.3135 19.0784 22.319C19.0625 22.325 19.038 22.3249 19.0197 22.3195C19.0024 22.3144 18.9744 22.3133 18.9581 22.3174C18.9347 22.323 18.9029 22.319 18.8316 22.3015C18.7021 22.2705 18.5087 22.2 18.4805 22.1738C18.4686 22.1632 18.4486 22.151 18.4364 22.1474C18.4234 22.1436 18.413 22.1343 18.4114 22.1267C18.4108 22.1193 18.4012 22.1102 18.3908 22.1072C18.3795 22.1038 18.3608 22.0903 18.3496 22.0772C18.3375 22.0638 18.3223 22.0513 18.3145 22.049C18.3067 22.0466 18.2959 22.0354 18.2905 22.0249C18.2845 22.0133 18.2688 21.9962 18.2557 21.9861C18.2418 21.9757 18.2298 21.965 18.228 21.9618C18.2263 21.9577 18.2146 21.9463 18.2027 21.9356C18.1899 21.9247 18.179 21.9134 18.1771 21.9102C18.1678 21.894 18.1276 21.8509 18.1198 21.8486C18.1155 21.8473 18.1121 21.8428 18.1136 21.8379C18.1148 21.8337 18.1099 21.8278 18.103 21.8258C18.0952 21.8235 18.0828 21.8109 18.0747 21.7969C18.0666 21.7829 18.0475 21.7612 18.0326 21.7479C18.0174 21.7354 18.0064 21.7214 18.0076 21.7173C18.0091 21.7124 18.0057 21.7078 17.9996 21.706C17.9935 21.7042 17.971 21.6815 17.9494 21.6555C17.927 21.6292 17.907 21.6072 17.9036 21.6062C17.8975 21.6044 17.8489 21.5454 17.8448 21.5335C17.8429 21.5303 17.8322 21.5218 17.8202 21.5146C17.8081 21.5075 17.7942 21.4909 17.7886 21.4777C17.7831 21.4644 17.7728 21.4515 17.7658 21.4495C17.758 21.4472 17.7489 21.4365 17.7446 21.4254C17.7403 21.4143 17.7304 21.4033 17.7217 21.4008C17.713 21.3982 17.707 21.3929 17.708 21.3896C17.7102 21.3822 17.6156 21.2712 17.6034 21.2676C17.5991 21.2663 17.5956 21.2591 17.594 21.2515C17.5934 21.2441 17.5881 21.2363 17.582 21.2345C17.576 21.2327 17.5611 21.2159 17.5485 21.1978C17.537 21.1793 17.5193 21.1624 17.5098 21.1596C17.5002 21.1568 17.4969 21.1522 17.5009 21.1481C17.5047 21.1447 17.5042 21.1401 17.499 21.1386C17.4929 21.1368 17.477 21.1205 17.4629 21.1011C17.4485 21.0826 17.4311 21.065 17.4241 21.0629C17.4172 21.0609 17.4104 21.0553 17.4096 21.0515C17.4097 21.0479 17.3865 21.0179 17.36 20.986C17.3327 20.9538 17.3113 20.9242 17.3105 20.9204C17.31 20.9158 17.3038 20.9113 17.2968 20.9093C17.2899 20.9072 17.2856 20.9024 17.2871 20.8975C17.2883 20.8934 17.2771 20.8802 17.2625 20.8688C17.248 20.8574 17.2349 20.841 17.2345 20.8328C17.2338 20.8255 17.2251 20.8167 17.2164 20.8141C17.2077 20.8115 17.2009 20.8059 17.2023 20.801C17.2035 20.7969 17.1987 20.791 17.1917 20.789C17.1848 20.7869 17.1774 20.7767 17.1749 20.7661C17.1723 20.7556 17.165 20.7453 17.1572 20.743C17.1502 20.741 17.1372 20.7273 17.1291 20.7133C17.1212 20.6985 17.1061 20.6825 17.0976 20.6763C17.0881 20.67 17.072 20.651 17.0614 20.6326C17.0508 20.6143 17.0304 20.5905 17.0157 20.5798C17.002 20.5687 16.9914 20.5566 16.9926 20.5525C16.9938 20.5484 16.9811 20.5339 16.9644 20.5201C16.9477 20.5062 16.9353 20.4909 16.937 20.4852C16.9384 20.4803 16.9281 20.4674 16.9144 20.4562C16.9013 20.4461 16.8841 20.4276 16.8775 20.415C16.8708 20.4023 16.8599 20.3883 16.8539 20.383C16.8479 20.3777 16.8341 20.3638 16.8244 20.352C16.8135 20.3407 16.79 20.315 16.7715 20.2944C16.7528 20.2746 16.7296 20.2445 16.7194 20.2281C16.7094 20.2109 16.6949 20.1959 16.6862 20.1933C16.6775 20.1908 16.661 20.1734 16.6484 20.1554C16.6369 20.1368 16.6174 20.1132 16.6055 20.1025C16.5938 20.091 16.5849 20.0795 16.5861 20.0754C16.5873 20.0713 16.5773 20.0603 16.5645 20.0494C16.5506 20.039 16.5334 20.0205 16.5261 20.0068C16.5186 19.9938 16.5053 19.9783 16.4956 19.9728C16.4862 19.9664 16.4701 19.9474 16.4603 19.9293C16.4503 19.9121 16.4378 19.8968 16.4335 19.8955C16.4291 19.8942 16.4149 19.8784 16.4034 19.8598C16.3908 19.8418 16.3769 19.8252 16.3725 19.8239C16.3673 19.8224 16.353 19.8039 16.3385 19.7826C16.3248 19.7616 16.3088 19.7426 16.3035 19.7411C16.2975 19.7393 16.2871 19.7264 16.2801 19.7118C16.2731 19.6973 16.261 19.6839 16.2532 19.6816C16.2454 19.6793 16.2309 19.6643 16.2215 19.6481C16.2036 19.616 16.1788 19.5882 16.1649 19.5841C16.1606 19.5828 16.1512 19.5729 16.1447 19.563C16.1182 19.5185 16.0967 19.4925 16.0854 19.4892C16.0784 19.4871 16.0719 19.4772 16.072 19.4674C16.0714 19.4565 16.0638 19.4471 16.0525 19.4438C16.0421 19.4407 16.0253 19.4241 16.0164 19.4063C15.9991 19.3753 15.9682 19.3555 15.9631 19.3727C15.9616 19.3777 15.9502 19.3877 15.9377 19.3947C15.9244 19.4015 15.91 19.4151 15.9045 19.4242C15.8979 19.4339 15.8885 19.44 15.8824 19.4382C15.8755 19.4362 15.8623 19.4457 15.8525 19.4598C15.8427 19.4738 15.8272 19.488 15.8185 19.4917C15.8099 19.4954 15.7938 19.5085 15.7822 19.5221C15.7709 19.5348 15.7577 19.5443 15.7534 19.543C15.7482 19.5415 15.7422 19.546 15.7402 19.5525C15.7383 19.5591 15.7322 19.5636 15.7279 19.5623C15.7227 19.5608 15.718 19.5638 15.7166 19.5688C15.7136 19.5786 15.5896 19.676 15.578 19.677C15.574 19.6776 15.5695 19.6834 15.5678 19.6892C15.5659 19.6958 15.5508 19.7083 15.535 19.717C15.5193 19.7258 15.4971 19.7433 15.4867 19.7563C15.4753 19.7691 15.4622 19.7786 15.4578 19.7773C15.4526 19.7758 15.4461 19.7819 15.4434 19.7909C15.4408 19.7999 15.4296 19.8091 15.4183 19.8121C15.4071 19.815 15.3966 19.8217 15.3949 19.8275C15.392 19.8373 15.2632 19.9413 15.2417 19.9502C15.235 19.9536 15.2151 19.97 15.1964 19.9886C15.1788 20.0066 15.1607 20.02 15.1564 20.0188C15.1529 20.0177 15.1419 20.0261 15.1337 20.038C15.1246 20.0496 15.1121 20.0602 15.1044 20.0606C15.0978 20.0604 15.0861 20.0713 15.0785 20.0842C15.071 20.0971 15.0615 20.1068 15.058 20.1058C15.0537 20.1045 15.0349 20.1169 15.0159 20.1336C14.9976 20.1505 14.9798 20.1631 14.9763 20.1621C14.972 20.1608 14.9592 20.1722 14.9463 20.1872C14.9223 20.214 14.8755 20.2511 14.8453 20.2672C14.8362 20.2725 14.8274 20.2798 14.8262 20.2839C14.825 20.288 14.8023 20.3072 14.776 20.3262C14.7496 20.3452 14.716 20.3728 14.7013 20.3873C14.687 20.4009 14.6707 20.4112 14.6663 20.41C14.6611 20.4084 14.6555 20.4148 14.6528 20.4238C14.6501 20.4329 14.6445 20.4392 14.6402 20.438C14.6358 20.4367 14.6267 20.442 14.6214 20.4503C14.6153 20.4583 14.5989 20.4722 14.5836 20.4793C14.5692 20.4867 14.5555 20.4978 14.5536 20.5044C14.5516 20.511 14.5404 20.5202 14.5296 20.525C14.5176 20.5304 14.4981 20.5452 14.4857 20.5585C14.4733 20.5718 14.4601 20.5813 14.4558 20.58C14.4506 20.5785 14.4456 20.5824 14.4437 20.5889C14.4418 20.5955 14.4224 20.613 14.401 20.6281C14.3796 20.6432 14.3574 20.6608 14.3515 20.668C14.3467 20.6746 14.3378 20.6792 14.3335 20.6779C14.3291 20.6766 14.3215 20.6833 14.3149 20.6929C14.3094 20.702 14.287 20.7204 14.2645 20.7325C14.2427 20.7457 14.2235 20.7597 14.2223 20.7638C14.2208 20.7688 14.2121 20.776 14.2029 20.7813C14.1495 20.812 14.1402 20.8182 14.1382 20.8248C14.1373 20.828 14.1044 20.8532 14.0658 20.8784C14.027 20.9044 13.9943 20.9288 13.9931 20.9329C13.9919 20.937 13.981 20.9418 13.9681 20.9442C13.9559 20.9469 13.9299 20.9615 13.9108 20.9782C13.8911 20.9939 13.8715 21.0059 13.8672 21.0047C13.8629 21.0034 13.8584 21.0056 13.857 21.0106C13.8557 21.0147 13.8265 21.0337 13.7921 21.0513C13.6366 21.134 13.4492 21.2287 13.3984 21.2503C13.2841 21.2987 13.242 21.3167 13.2187 21.3286C13.2051 21.3362 13.1906 21.3408 13.1854 21.3393C13.181 21.338 13.162 21.3449 13.1442 21.3539C13.1254 21.3635 13.1075 21.3699 13.1031 21.3686C13.0994 21.3684 13.0789 21.3739 13.0585 21.3822C13.0379 21.3913 13.0165 21.3966 13.0113 21.3951C13.0052 21.3933 12.9952 21.3984 12.99 21.4066C12.9847 21.4149 12.9688 21.4209 12.9559 21.4198C12.9428 21.4195 12.9181 21.4265 12.9014 21.435C12.8845 21.4443 12.8657 21.4503 12.8597 21.4486C12.8536 21.4468 12.8404 21.45 12.8301 21.4559C12.8201 21.461 12.7991 21.4682 12.7825 21.4704C12.7666 21.4729 12.7461 21.4785 12.7366 21.4819C12.6819 21.5042 12.6521 21.5123 12.6409 21.509C12.633 21.5067 12.6139 21.5109 12.5975 21.5185C12.5811 21.5262 12.5636 21.5309 12.5576 21.5291C12.5515 21.5273 12.5341 21.532 12.5177 21.5396C12.5012 21.5473 12.4803 21.551 12.4717 21.5484C12.4621 21.5456 12.4478 21.5494 12.439 21.5566C12.4292 21.5644 12.4134 21.5669 12.3986 21.5626C12.3856 21.5587 12.3709 21.5606 12.3663 21.5664C12.3609 21.572 12.3505 21.5752 12.3419 21.5726C12.334 21.5703 12.3097 21.5729 12.2889 21.5793C12.2682 21.5857 12.2429 21.5881 12.2334 21.5852C12.2238 21.5824 12.2126 21.5854 12.2081 21.5912C12.2026 21.5967 12.1923 21.5999 12.1836 21.5973C12.1758 21.595 12.1562 21.5973 12.1414 21.6028C12.1266 21.6082 12.1079 21.6107 12.0984 21.6079C12.0897 21.6054 12.071 21.6079 12.0562 21.6133C12.0414 21.6188 12.0184 21.62 12.0054 21.6162C11.9923 21.6124 11.9776 21.6143 11.9731 21.6201C11.9677 21.6256 11.9564 21.6285 11.9469 21.6257C11.9304 21.6209 11.9026 21.6225 11.8182 21.6333C11.7958 21.6356 11.7702 21.6361 11.7607 21.6333C11.7511 21.6305 11.7366 21.6316 11.7295 21.6366C11.7226 21.6408 11.6996 21.6421 11.6797 21.6389C11.6599 21.6357 11.6352 21.6364 11.6254 21.6407C11.6157 21.645 11.5883 21.645 11.5642 21.6405C11.5406 21.6371 11.5115 21.6366 11.4983 21.6398C11.4862 21.6425 11.4562 21.6417 11.4318 21.6381C11.4068 21.6334 11.3832 21.6335 11.378 21.6383C11.3731 21.6422 11.3434 21.6405 11.3125 21.6332C11.2799 21.6254 11.2491 21.6243 11.2382 21.6292C11.2256 21.6335 11.1942 21.6313 11.1509 21.6213C11.1131 21.6119 11.0747 21.6077 11.0661 21.6114C11.0574 21.6151 11.0159 21.6118 10.9742 21.6031C10.9324 21.5943 10.8894 21.5897 10.8782 21.5926C10.8669 21.5955 10.802 21.5853 10.7294 21.5692C10.6585 21.5537 10.5687 21.5352 10.5293 21.528C10.4378 21.5118 9.99601 21.3814 9.93034 21.3513C9.90291 21.3388 9.82524 21.3078 9.75726 21.2824C9.6858 21.256 9.62597 21.2285 9.61402 21.2178C9.60232 21.2063 9.56794 21.1917 9.52194 21.1781C9.46986 21.1628 9.44479 21.1518 9.43381 21.1378C9.42471 21.1271 9.39391 21.11 9.36536 21.098C9.33658 21.0868 9.3064 21.0708 9.29855 21.0622C9.29046 21.0545 9.25532 21.0361 9.2207 21.0223C9.18608 21.0085 9.15268 20.9906 9.14743 20.9828C9.14218 20.975 9.11895 20.961 9.09648 20.9508C9.07377 20.9414 9.05016 20.9255 9.04429 20.9166C9.03841 20.9078 9.02188 20.8966 9.00713 20.8923C8.99237 20.8879 8.97285 20.8741 8.96337 20.8615C8.95388 20.8489 8.93523 20.8354 8.92134 20.8313C8.90746 20.8272 8.89068 20.8169 8.88307 20.8075C8.87522 20.7989 8.85334 20.7835 8.83411 20.7752C8.81511 20.766 8.79931 20.7524 8.79864 20.7451C8.79798 20.7377 8.78815 20.7295 8.776 20.7259C8.76471 20.7225 8.74534 20.7115 8.73339 20.7008C8.66121 20.6384 8.6428 20.6241 8.62892 20.62C8.62024 20.6174 8.61325 20.6091 8.61259 20.6017C8.61106 20.5942 8.60234 20.5853 8.59105 20.582C8.58064 20.5789 8.56372 20.5659 8.55424 20.5533C8.54475 20.5407 8.52784 20.5276 8.51569 20.524C8.50353 20.5205 8.49395 20.5114 8.49304 20.5049C8.49237 20.4975 8.47831 20.4844 8.46278 20.4763C8.44615 20.4687 8.43396 20.4589 8.43517 20.4547C8.43638 20.4506 8.43128 20.4456 8.42433 20.4435C8.41739 20.4415 8.40569 20.43 8.3988 20.4181C8.39192 20.4063 8.37848 20.3943 8.36893 20.3914C8.35938 20.3886 8.35066 20.3798 8.35 20.3725C8.34934 20.3651 8.33589 20.3531 8.32037 20.345C8.30461 20.3376 8.29377 20.3264 8.29571 20.3198C8.29765 20.3133 8.29129 20.306 8.28174 20.3032C8.27219 20.3004 8.26535 20.2948 8.2668 20.2899C8.26802 20.2858 8.26142 20.2794 8.25187 20.2765C8.24232 20.2737 8.22888 20.2617 8.222 20.2499C8.21512 20.238 8.20601 20.2273 8.20167 20.226C8.19733 20.2247 8.19122 20.2167 8.18708 20.2083C8.18294 20.1999 8.17249 20.1906 8.16381 20.188C8.15426 20.1852 8.14901 20.1774 8.15095 20.1709C8.15289 20.1643 8.14765 20.1565 8.13896 20.1539C8.13029 20.1514 8.12021 20.1439 8.11646 20.1375C8.10958 20.1256 8.10534 20.1208 8.05751 20.0718C8.04455 20.0582 8.02871 20.0383 8.02134 20.0281C8.01508 20.0174 8.00574 20.0075 8.0014 20.0062C7.99619 20.0046 7.98685 19.9947 7.98035 19.9848C7.9571 19.9485 7.94737 19.9367 7.93869 19.9341C7.93348 19.9326 7.92799 19.9256 7.92598 19.9196C7.92055 19.9028 7.88014 19.8543 7.86799 19.8507C7.86365 19.8494 7.86101 19.8424 7.86295 19.8358C7.86489 19.8293 7.86137 19.822 7.8553 19.8202C7.84922 19.8184 7.84186 19.8082 7.83845 19.7974C7.83504 19.7865 7.82767 19.7763 7.82159 19.7745C7.81465 19.7725 7.80131 19.7569 7.79154 19.7389C7.78153 19.7216 7.76844 19.7053 7.76236 19.7035C7.75715 19.7019 7.75364 19.6946 7.75558 19.6881C7.75752 19.6815 7.75487 19.6745 7.74967 19.6729C7.74446 19.6714 7.72361 19.6429 7.70397 19.6103C7.68371 19.5767 7.66109 19.5414 7.65223 19.5299C7.62165 19.4896 7.5616 19.3862 7.56402 19.3779C7.56547 19.373 7.56321 19.3679 7.55801 19.3663C7.55019 19.364 7.50457 19.2916 7.50699 19.2834C7.50699 19.2834 7.49569 19.2578 7.48005 19.2308C7.46417 19.2047 7.45262 19.1799 7.45359 19.1766C7.45456 19.1733 7.4458 19.1582 7.43531 19.1426C7.42395 19.1268 7.4163 19.1111 7.41751 19.107C7.41872 19.1029 7.41344 19.0888 7.40506 19.0757C7.39755 19.0627 7.38327 19.0344 7.37423 19.0139C7.36432 18.9931 7.3534 18.9693 7.34926 18.961C7.34575 18.9537 7.34297 18.9439 7.34418 18.9398C7.34515 18.9365 7.33712 18.919 7.32687 18.9026C7.31599 18.8851 7.30907 18.8669 7.31077 18.8612C7.31246 18.8554 7.30189 18.8273 7.28673 18.7987C7.27245 18.7704 7.26101 18.742 7.26246 18.7371C7.26416 18.7314 7.26127 18.7251 7.25693 18.7239C7.25172 18.7223 7.24946 18.7172 7.25092 18.7123C7.25261 18.7065 7.2467 18.6914 7.2377 18.6771C7.2287 18.6628 7.22376 18.6444 7.22666 18.6346C7.22933 18.6255 7.22804 18.6171 7.2237 18.6158C7.21936 18.6146 7.21046 18.5967 7.20489 18.5772C7.1987 18.5567 7.19091 18.5383 7.18792 18.5356C7.18494 18.533 7.18364 18.5245 7.18607 18.5163C7.18825 18.5089 7.18407 18.4943 7.17695 18.4833C7.16958 18.4731 7.16541 18.4584 7.16735 18.4519C7.16929 18.4453 7.16664 18.4383 7.1623 18.437C7.1571 18.4354 7.15171 18.4249 7.15027 18.4138C7.14822 18.4016 7.1454 18.3856 7.14386 18.378C7.13359 18.3392 7.12482 18.3018 7.1174 18.263C7.11217 18.2391 7.1041 18.2153 7.09986 18.2105C7.09476 18.2054 7.09203 18.1859 7.09476 18.167C7.09759 18.1446 7.09404 18.1311 7.08349 18.1253C7.07317 18.1187 7.07039 18.1089 7.07524 18.0925C7.07911 18.0794 7.07702 18.0609 7.06965 18.0507C7.06291 18.0415 7.05918 18.019 7.0608 18.0007C7.06241 17.9824 7.05931 17.961 7.05431 17.9524C7.0493 17.9438 7.04749 17.9307 7.04967 17.9233C7.05185 17.9159 7.04989 17.9002 7.04537 17.8899C7.0411 17.8788 7.0389 17.8639 7.04132 17.8557C7.0435 17.8483 7.04058 17.8358 7.03533 17.828C7.03008 17.8202 7.0274 17.8069 7.02982 17.7987C7.03225 17.7905 7.03025 17.7685 7.02555 17.7492C7.02085 17.73 7.01959 17.7055 7.02274 17.6948C7.02613 17.6833 7.02316 17.6646 7.01628 17.6527C7.00878 17.6398 7.00692 17.6205 7.01201 17.6032C7.01686 17.5868 7.01553 17.5721 7.00931 17.5676C7.0016 17.5618 7.00134 17.5403 7.00646 17.5069C7.01123 17.478 7.01166 17.4478 7.00641 17.44C7.0014 17.4313 7.00048 17.4025 7.0039 17.3749C7.00669 17.3463 7.00479 17.3207 6.99795 17.3151C6.9901 17.3065 6.99099 17.2907 7.00069 17.2579C7.00965 17.2275 7.01137 17.2057 7.00473 17.193C6.99872 17.1814 7.00002 17.1514 7.00929 17.1104C7.01818 17.0675 7.01889 17.0427 7.01181 17.0379C7.00496 17.0323 7.00634 17.0149 7.01603 16.982C7.02403 16.9549 7.02838 16.9178 7.02566 16.8982C7.02255 16.8768 7.03053 16.8273 7.04427 16.768C7.05766 16.713 7.06575 16.66 7.06341 16.6424C7.05647 16.6019 7.27936 15.8497 7.30894 15.8102Z" fill="white"/>
</g>
<defs>
<filter id="filter0_d_18_42" x="2.99268" y="7.55305" width="24.8153" height="22.7705" filterUnits="userSpaceOnUse" color-interpolation-filters="sRGB">
<feFlood flood-opacity="0" result="BackgroundImageFix"/>
<feColorMatrix in="SourceAlpha" type="matrix" values="0 0 0 0 0 0 0 0 0 0 0 0 0 0 0 0 0 0 127 0" result="hardAlpha"/>
<feOffset dy="4"/>
<feGaussianBlur stdDeviation="2"/>
<feComposite in2="hardAlpha" operator="out"/>
<feColorMatrix type="matrix" values="0 0 0 0 0 0 0 0 0 0 0 0 0 0 0 0 0 0 0.25 0"/>
<feBlend mode="normal" in2="BackgroundImageFix" result="effect1_dropShadow_18_42"/>
<feBlend mode="normal" in="SourceGraphic" in2="effect1_dropShadow_18_42" result="shape"/>
</filter>
</defs>
</svg>
